<?xml version="1.0" standalone="no"?>
<!DOCTYPE svg PUBLIC "-//W3C//DTD SVG 20010904//EN"
 "http://www.w3.org/TR/2001/REC-SVG-20010904/DTD/svg10.dtd">
<svg version="1.0" xmlns="http://www.w3.org/2000/svg"
 width="953.000000pt" height="953.000000pt" viewBox="0 0 953.000000 953.000000"
 preserveAspectRatio="xMidYMid meet">

<g transform="translate(0.000000,953.000000) scale(0.100000,-0.100000)"
fill="#FFFFFF" stroke="none">
<path d="M4410 9500 c-1001 -77 -1923 -454 -2710 -1109 -148 -123 -448 -423
-571 -571 -614 -738 -970 -1569 -1085 -2530 -22 -186 -30 -636 -15 -841 37
-502 144 -974 326 -1434 111 -283 320 -671 505 -937 199 -287 507 -633 770
-863 767 -671 1687 -1064 2735 -1167 159 -15 625 -15 795 1 482 44 899 142
1330 312 1376 541 2434 1711 2835 3133 212 751 231 1573 54 2341 -338 1473
-1374 2709 -2766 3304 -431 183 -854 292 -1353 346 -171 19 -683 28 -850 15z
m540 -21 c113 -5 223 -11 245 -14 247 -29 347 -43 510 -76 581 -117 1198 -378
1695 -718 762 -521 1355 -1247 1706 -2089 235 -562 350 -1122 358 -1747 7
-432 -33 -783 -135 -1193 -248 -1005 -824 -1899 -1642 -2552 -1221 -973 -2833
-1277 -4327 -813 -327 101 -720 278 -1020 458 -1062 639 -1831 1667 -2140
2859 -113 437 -158 827 -147 1296 6 266 21 424 62 675 248 1487 1234 2795
2605 3453 569 274 1202 435 1795 458 88 4 162 8 163 10 6 4 53 3 272 -7z"/>
<path d="M4422 9409 c-1010 -73 -1965 -472 -2724 -1138 -1171 -1028 -1745
-2547 -1548 -4096 154 -1213 794 -2324 1775 -3085 550 -426 1233 -737 1909
-869 368 -72 660 -97 1041 -88 423 10 774 63 1165 174 1517 432 2735 1640
3175 3148 190 653 237 1300 144 1974 -105 757 -405 1487 -871 2118 -176 239
-476 561 -703 755 -859 733 -1929 1125 -3052 1117 -109 -1 -249 -6 -311 -10z
m838 -114 c558 -69 1026 -206 1505 -441 886 -434 1617 -1159 2061 -2046 639
-1274 639 -2788 2 -4062 -100 -200 -144 -276 -284 -486 -771 -1164 -2006
-1893 -3419 -2020 -160 -14 -728 -5 -880 14 -574 73 -1053 218 -1545 467
-1077 545 -1905 1515 -2274 2667 -226 705 -274 1473 -140 2212 221 1210 941
2294 1974 2973 663 435 1375 675 2200 741 126 10 673 -3 800 -19z"/>
<path d="M4780 9266 c0 -7 -11 -168 -25 -356 -14 -188 -24 -345 -21 -347 3 -3
35 -6 73 -7 l68 -1 7 90 c4 50 11 135 15 189 l8 99 209 -222 c115 -122 212
-218 216 -214 4 4 17 154 29 333 12 179 23 336 24 350 2 23 -2 25 -66 33 -38
5 -71 7 -73 4 -3 -2 -11 -86 -18 -186 -8 -100 -16 -184 -18 -186 -2 -3 -96 94
-208 215 -112 121 -207 220 -212 220 -4 0 -8 -6 -8 -14z"/>
<path d="M4226 9198 c-9 -24 -70 -193 -135 -377 l-119 -333 76 7 c43 4 80 10
83 13 3 4 12 28 19 54 14 54 6 51 172 68 142 15 135 16 161 -36 l22 -46 75 7
c41 4 79 10 83 15 8 7 -401 669 -415 670 -3 0 -13 -19 -22 -42z m104 -335 c30
-53 56 -100 58 -103 2 -6 -179 -33 -184 -27 -4 4 61 227 66 227 3 0 30 -44 60
-97z"/>
<path d="M5566 8830 c-49 -181 -87 -333 -83 -336 3 -4 64 -22 134 -41 203 -54
327 -40 427 48 80 70 122 176 114 290 -9 120 -78 218 -195 277 -48 25 -268 92
-299 92 -5 0 -49 -148 -98 -330z m275 135 c134 -47 188 -168 129 -290 -30 -62
-81 -95 -157 -102 -65 -6 -147 12 -140 30 2 7 26 94 53 194 27 101 54 183 60
183 6 0 31 -7 55 -15z"/>
<path d="M3010 8904 c-185 -50 -261 -196 -169 -324 40 -55 89 -75 226 -93 137
-18 165 -32 161 -85 -5 -65 -100 -109 -210 -97 l-60 7 42 -81 c47 -91 48 -91
143 -66 202 53 293 192 223 342 -26 55 -76 97 -136 113 -19 5 -82 14 -139 20
-115 11 -144 26 -139 68 5 45 49 66 147 72 l89 5 -30 68 c-29 62 -33 67 -62
66 -17 0 -56 -7 -86 -15z"/>
<path d="M2465 8622 c-116 -40 -188 -102 -233 -202 -21 -45 -26 -71 -26 -140
-1 -75 3 -93 31 -152 42 -90 110 -160 192 -201 57 -28 76 -32 146 -32 71 0 88
4 149 34 69 34 159 113 186 165 14 27 12 32 -25 102 -22 41 -42 74 -45 74 -3
0 -12 -16 -19 -37 -31 -85 -151 -173 -236 -173 -86 1 -177 74 -209 168 -20 58
-20 93 -1 140 36 84 106 126 212 127 40 0 73 1 73 3 0 1 -16 34 -35 72 -34 68
-36 70 -73 70 -20 -1 -60 -8 -87 -18z"/>
<path d="M6949 8587 c-33 -18 -51 -37 -72 -78 -40 -75 -33 -120 39 -270 60
-127 62 -147 18 -176 -21 -13 -31 -14 -64 -4 -48 14 -119 83 -145 140 l-18 42
-45 -82 -44 -81 53 -54 c66 -67 152 -114 224 -121 78 -8 151 29 196 98 27 43
32 60 32 111 0 53 -6 73 -56 172 -57 111 -68 151 -45 174 37 37 122 -15 175
-105 13 -23 26 -43 28 -43 1 0 22 30 44 66 l42 67 -61 59 c-106 104 -210 133
-301 85z"/>
<path d="M4530 8478 c-492 -30 -956 -152 -1395 -368 -397 -195 -699 -411
-1010 -724 -584 -586 -939 -1317 -1052 -2166 -22 -168 -25 -685 -5 -850 109
-887 483 -1652 1101 -2253 469 -456 1040 -777 1666 -937 502 -128 1025 -150
1544 -65 1053 174 2000 818 2554 1737 284 472 454 980 518 1548 17 149 17 601
0 750 -74 660 -294 1245 -665 1770 l-81 115 -3 -80 -3 -80 74 -111 c309 -468
497 -978 574 -1559 21 -164 25 -656 5 -815 -86 -702 -329 -1301 -740 -1829
-541 -694 -1292 -1157 -2157 -1330 -204 -41 -575 -80 -575 -61 0 5 28 22 63
39 50 24 80 31 157 35 131 9 368 50 535 93 1217 312 2179 1243 2530 2448 281
966 137 2010 -396 2863 -54 86 -65 99 -69 80 -4 -16 11 -49 54 -118 310 -493
510 -1160 516 -1720 2 -152 -8 -466 -15 -483 -4 -9 -18 -20 -30 -23 -13 -3
-26 -13 -30 -21 -8 -22 0 -27 17 -11 19 19 38 20 38 4 0 -8 -11 -81 -25 -162
-14 -81 -25 -149 -25 -151 0 -2 -4 -1 -10 2 -5 3 -10 15 -10 26 0 12 -4 17
-11 13 -8 -4 -8 0 0 15 7 13 11 66 9 143 l-3 123 -17 -32 c-21 -37 -23 -79 -5
-87 10 -5 10 -7 0 -12 -8 -3 -13 -25 -13 -55 0 -28 4 -48 9 -45 5 3 11 -1 15
-9 3 -8 0 -14 -6 -12 -23 4 -19 -35 6 -71 17 -26 24 -45 20 -62 -15 -64 -59
-217 -97 -330 l-42 -125 -6 55 c-3 30 -4 73 -2 95 3 29 1 36 -7 25 -6 -9 -10
-10 -10 -3 0 6 5 15 10 18 6 3 10 12 10 18 0 7 -4 6 -10 -3 -6 -9 -10 -10 -10
-3 0 6 5 15 10 18 16 10 12 74 -7 105 l-16 29 -39 -22 c-21 -12 -38 -29 -38
-37 1 -12 4 -11 15 4 7 10 18 15 24 11 6 -3 11 1 11 9 0 22 20 20 21 -1 0 -10
0 -87 0 -170 0 -147 1 -153 20 -153 16 0 19 -4 13 -22 -17 -55 -64 -148 -75
-148 -6 0 -9 6 -6 14 3 7 -3 20 -13 29 -24 20 -31 2 -13 -33 7 -14 13 -37 13
-51 0 -36 -94 -225 -119 -239 -17 -9 -20 -8 -14 6 4 11 2 15 -4 11 -12 -7 -23
14 -23 41 0 15 2 15 10 2 7 -10 10 24 7 111 -3 113 -1 128 15 138 10 6 18 18
18 26 0 13 -4 14 -20 5 -36 -19 -47 -59 -49 -180 -2 -109 -1 -118 24 -153 14
-21 25 -41 25 -44 0 -13 -125 -207 -152 -237 -16 -17 -35 -44 -43 -61 -7 -16
-34 -56 -60 -89 -42 -52 -49 -57 -62 -43 -13 12 -16 43 -17 149 -1 116 1 135
17 146 9 7 17 20 17 28 0 12 -4 12 -20 4 -36 -19 -47 -59 -49 -178 -2 -91 1
-118 15 -142 10 -16 21 -27 26 -24 4 3 8 -1 8 -9 0 -13 -118 -158 -140 -172
-5 -3 -10 -1 -10 5 0 6 -4 9 -9 5 -5 -3 -12 3 -16 14 -3 11 -13 22 -22 25 -29
12 -26 -3 7 -34 18 -16 27 -30 20 -30 -6 0 -8 -5 -5 -10 4 -6 -24 -42 -61 -81
-72 -74 -83 -75 -79 -7 1 15 -2 28 -7 28 -4 0 -8 -5 -8 -12 0 -6 -3 -9 -6 -6
-3 4 2 20 10 37 9 16 16 38 15 48 -1 12 -3 10 -8 -7 -6 -20 -8 -22 -13 -8 -7
17 24 62 36 51 3 -3 6 -1 6 5 0 25 -20 20 -38 -10 -17 -27 -21 -50 -21 -128
l0 -95 -53 -50 -53 -50 -5 150 c-5 136 -7 150 -23 152 -18 1 -18 -9 -15 -167
l3 -167 -53 -39 c-30 -22 -70 -53 -90 -70 -52 -43 -95 -72 -124 -83 -20 -7
-24 -6 -24 9 0 10 4 16 9 13 5 -3 7 8 5 23 -2 18 -8 28 -16 26 -8 -1 -11 2 -7
8 12 19 -16 10 -40 -14 -13 -13 -26 -21 -29 -18 -3 3 -6 0 -6 -6 0 -16 11 -15
38 4 13 9 24 14 26 13 1 -2 1 -25 -2 -52 -4 -47 -4 -47 -85 -97 -45 -28 -85
-50 -89 -50 -4 0 -8 48 -8 108 0 59 -5 114 -10 122 -8 12 -10 12 -10 -5 0 -17
-2 -17 -10 -5 -6 10 -10 -30 -12 -120 l-3 -135 -60 -32 c-73 -40 -91 -42 -74
-11 6 12 14 61 17 110 5 99 -10 171 -40 193 -19 13 -17 16 38 77 73 79 83 86
101 62 10 -14 13 -14 13 -3 0 8 -5 20 -12 27 -9 9 -5 20 16 49 15 21 42 59 59
85 36 53 46 59 48 26 2 -24 0 -103 -3 -127 -3 -26 -44 -58 -72 -54 -14 2 -26
-1 -26 -7 0 -6 4 -9 9 -6 5 4 11 1 13 -5 5 -15 58 7 58 25 0 7 6 13 13 12 6 0
13 3 14 8 1 5 6 12 12 15 16 11 27 171 11 171 -9 0 -9 4 -2 13 5 6 10 24 10
39 -1 33 19 60 41 56 13 -3 15 -23 13 -133 -2 -148 5 -171 59 -198 41 -19 99
-14 99 10 0 8 5 11 10 8 6 -3 10 -2 10 4 0 21 -17 19 -43 -5 -15 -14 -27 -20
-27 -14 0 5 -8 10 -18 10 -11 0 -28 8 -39 18 -17 15 -19 29 -19 132 1 63 -3
129 -7 145 -5 19 -4 25 1 16 7 -10 11 -10 17 -1 4 7 21 18 38 25 28 12 35 11
59 -7 16 -10 28 -26 28 -34 0 -8 4 -14 8 -14 9 0 7 -126 -3 -207 -5 -43 10
-67 26 -42 12 19 11 32 -1 24 -14 -9 -12 9 2 23 13 13 21 155 8 147 -4 -3 -11
2 -14 11 -9 23 -7 31 4 14 5 -8 12 -11 17 -7 4 5 3 11 -3 15 -5 4 -11 18 -11
31 -1 14 -12 34 -24 45 -19 18 -21 19 -16 3 4 -11 3 -16 -3 -12 -6 3 -10 14
-10 23 0 14 -2 15 -10 2 -8 -12 -10 -12 -15 2 -4 11 -15 15 -31 12 -22 -4 -23
-2 -18 26 4 20 1 38 -11 56 -14 22 -16 51 -15 198 1 170 0 173 -21 171 -11 -1
-24 -7 -28 -14 -5 -7 -10 -12 -12 -10 -11 6 -49 -14 -49 -27 0 -11 7 -9 35 6
l35 20 0 -133 c0 -93 4 -137 13 -146 10 -11 9 -13 -1 -7 -20 12 -53 83 -92
201 -21 60 -44 112 -51 116 -8 4 -35 12 -61 18 -53 12 -85 4 -118 -29 l-20
-20 0 85 c0 84 0 85 21 75 11 -7 27 -9 34 -6 8 3 15 0 17 -5 5 -15 58 7 58 25
0 7 7 13 16 12 17 -1 25 19 28 66 0 14 5 24 10 21 4 -3 6 37 3 89 -3 68 -10
103 -22 122 -23 35 -53 52 -68 37 -9 -9 -6 -13 11 -18 12 -3 25 -16 28 -30 4
-15 12 -22 20 -19 8 3 14 -1 14 -10 0 -8 -4 -13 -8 -10 -4 2 -9 -41 -10 -97
-3 -133 -2 -126 -27 -151 -25 -25 -68 -25 -96 0 -17 15 -19 32 -19 149 0 98 4
140 15 161 8 16 15 24 15 17 0 -6 9 -9 20 -6 11 3 18 9 15 13 -3 5 1 11 7 13
10 4 10 6 0 6 -7 1 -28 -6 -47 -13 l-35 -15 0 61 c0 48 3 59 14 55 8 -3 17 -1
20 6 3 8 5 8 5 1 1 -17 51 -4 51 13 0 8 4 12 10 8 16 -10 43 42 36 71 -4 14
-3 23 2 20 5 -3 9 31 9 75 0 43 -4 82 -9 85 -5 3 -6 14 -3 23 6 21 -31 67 -50
63 -10 -2 -13 11 -12 52 2 46 8 60 32 86 23 24 29 39 28 70 -1 22 2 40 6 40 4
0 8 46 9 103 0 68 9 143 26 226 14 68 26 125 26 127 0 2 -22 4 -50 4 l-50 0 0
124 c0 116 -9 159 -24 120 -4 -9 -9 -14 -13 -11 -9 9 -64 -23 -58 -33 4 -6 16
-3 31 6 l24 16 0 -111 0 -111 -60 0 -60 0 0 61 c0 50 -3 60 -15 55 -10 -4 -15
1 -15 15 0 11 4 18 9 15 5 -4 11 -1 13 6 6 17 -3 58 -12 58 -12 0 -22 -67 -19
-139 l3 -66 -72 -3 -72 -3 0 62 c0 49 -3 60 -14 56 -10 -4 -13 -1 -9 8 3 8 8
13 13 10 4 -2 8 20 9 50 2 61 -13 73 -27 23 -14 -51 -15 -175 -1 -183 16 -11
-9 -25 -43 -25 -27 0 -28 2 -30 58 0 31 -1 63 -1 69 1 7 -3 11 -7 8 -4 -3 -11
2 -14 11 -9 23 -7 31 4 14 5 -8 12 -11 17 -7 4 5 3 11 -3 15 -5 4 -11 18 -11
31 -1 14 -12 34 -24 45 -19 18 -21 19 -16 3 4 -11 3 -16 -3 -12 -6 3 -10 14
-10 23 0 14 -2 15 -10 2 -8 -12 -10 -12 -15 2 -4 9 -14 15 -23 13 -9 -2 -22
-4 -29 -4 -6 -1 -15 -10 -18 -21 -4 -11 -10 -18 -15 -15 -5 3 -11 -4 -15 -15
-3 -11 -10 -20 -15 -20 -4 0 -8 -6 -7 -12 0 -7 -1 -52 -1 -100 l-2 -88 -47 0
c-51 0 -83 12 -64 24 7 4 11 41 11 94 0 81 -2 88 -20 88 -19 0 -20 -7 -20
-103 l0 -103 -60 0 -60 0 -2 58 c0 31 -1 63 -1 69 1 7 -3 11 -7 8 -4 -3 -11 2
-14 11 -9 23 -7 31 4 14 5 -8 12 -11 17 -7 4 5 3 11 -3 15 -6 4 -10 16 -11 27
0 11 -2 26 -4 33 -3 9 29 22 106 42 240 62 425 169 605 349 191 192 318 431
376 706 27 126 27 423 1 545 -15 70 -62 226 -83 278 -4 9 15 12 80 12 l86 0 0
-750 0 -750 205 0 205 0 0 750 0 750 300 0 300 0 -2 163 -3 162 -691 3 -692 2
-37 46 c-47 57 -169 161 -255 218 -383 252 -872 285 -1286 86 -236 -114 -461
-329 -588 -562 -55 -103 -101 -217 -125 -311 l-18 -72 -85 175 c-46 96 -117
244 -158 328 -40 84 -78 151 -84 149 -10 -3 -926 -1861 -926 -1879 0 -4 87 -7
197 -6 l196 3 58 135 57 135 399 0 398 0 13 -28 14 -29 22 21 c12 12 28 21 34
21 31 0 3 -34 -90 -112 -144 -119 -136 -115 -182 -84 -47 31 -80 33 -125 5
-41 -25 -998 -802 -1023 -831 -10 -11 -18 -30 -18 -42 0 -26 288 -389 313
-394 14 -3 943 744 1039 836 51 49 63 86 43 141 -8 24 -15 47 -15 50 0 6 162
143 213 180 17 12 25 7 85 -54 166 -167 399 -301 611 -349 58 -14 80 -27 81
-49 0 -5 -4 -6 -9 -3 -11 7 -17 -26 -20 -112 -1 -44 2 -73 10 -77 15 -10 -8
-25 -38 -25 -21 0 -23 5 -24 63 -2 76 -4 88 -12 107 -3 8 -7 26 -9 39 -3 23
-52 70 -63 60 -8 -9 41 -69 50 -61 5 4 5 -1 2 -11 -4 -10 -7 -59 -7 -108 l0
-89 -64 0 c-74 0 -96 6 -96 27 0 8 5 11 10 8 6 -4 10 13 10 44 0 28 -4 51 -10
51 -5 0 -10 -5 -10 -12 0 -6 -3 -9 -6 -6 -3 4 2 20 10 37 9 16 16 38 15 48 -1
12 -3 10 -8 -7 -6 -20 -8 -22 -13 -8 -7 17 24 62 36 51 3 -3 6 -1 6 5 0 25
-20 20 -39 -12 -18 -28 -21 -49 -21 -130 l0 -96 -50 0 -49 0 -3 118 c-2 91 -6
116 -16 114 -8 -1 -11 2 -7 8 12 19 -16 10 -40 -14 -13 -13 -26 -21 -29 -18
-3 3 -6 0 -6 -6 0 -16 11 -15 38 4 13 9 24 14 25 13 1 -2 1 -52 -1 -111 l-3
-108 -90 0 -89 0 0 118 c0 64 -5 124 -10 132 -8 12 -10 12 -10 -5 0 -17 -2
-17 -10 -5 -7 10 -10 -21 -10 -98 0 -73 4 -111 10 -107 6 3 10 0 10 -8 0 -20
-22 -27 -86 -27 l-54 0 -1 83 c0 45 -4 91 -9 102 -5 11 -9 16 -9 11 -1 -6 -7
-1 -15 9 -8 11 -12 25 -9 31 10 27 -78 51 -102 28 -8 -9 -19 -13 -24 -9 -5 3
-17 -5 -25 -17 -17 -24 -21 -42 -8 -34 4 2 8 -4 8 -14 0 -13 -4 -16 -11 -10
-8 6 -11 0 -11 -18 -1 -15 -1 -57 -2 -94 l-2 -68 -50 0 -50 0 0 85 c0 81 -1
84 -18 69 -21 -17 -32 -132 -13 -119 6 3 11 -1 11 -9 0 -20 -33 -28 -101 -24
-35 2 -53 7 -52 15 3 13 -62 -21 -73 -38 -3 -5 58 -9 143 -9 81 0 712 0 1401
0 688 0 1252 -4 1252 -8 0 -4 -45 -227 -100 -496 l-100 -487 0 -407 0 -407
-35 -53 c-20 -28 -38 -52 -42 -52 -3 0 -3 217 0 482 l6 483 85 417 c47 229 86
422 86 428 0 7 -433 10 -1411 10 l-1410 0 -62 -51 c-34 -28 -99 -81 -144 -117
-46 -37 -83 -72 -83 -79 0 -6 27 -144 60 -305 l60 -293 2 -477 c1 -262 0 -480
-4 -483 -3 -3 -20 16 -37 43 l-31 49 0 409 0 409 -60 294 c-33 162 -62 296
-63 297 -1 2 -8 -1 -15 -5 -10 -6 -10 -18 -3 -52 16 -66 14 -86 -9 -92 -24 -6
-70 27 -70 51 0 15 -1 15 -17 -1 -16 -15 -15 -18 2 -37 14 -16 20 -17 27 -8 6
10 8 9 8 -3 0 -18 39 -32 63 -23 18 7 19 5 51 -161 40 -206 56 -307 56 -355 0
-44 -2 -46 -42 -65 -29 -14 -44 -27 -46 -42 -2 -13 -8 -23 -13 -23 -6 0 -9
-46 -8 -116 1 -97 5 -123 21 -150 19 -32 37 -49 23 -21 -4 6 0 4 8 -5 8 -10
22 -18 31 -18 11 0 16 -9 17 -27 4 -114 3 -196 -3 -199 -11 -7 -47 47 -54 81
-4 23 -10 32 -20 28 -8 -3 -12 -9 -9 -13 3 -5 -19 -2 -50 7 -57 16 -85 9 -85
-23 0 -8 -7 -14 -15 -14 -8 0 -16 -6 -16 -12 -1 -7 -3 -28 -5 -46 -6 -80 -74
-234 -106 -240 -27 -5 -40 34 -39 125 0 68 -3 84 -14 79 -9 -3 -12 0 -8 9 3 8
8 13 13 10 4 -2 8 20 9 50 1 31 -3 55 -8 55 -25 0 -41 -172 -21 -211 10 -17 9
-20 -1 -14 -25 16 -1 -78 27 -102 20 -19 23 -26 14 -42 -15 -30 -12 -56 11
-85 18 -23 20 -30 9 -56 -8 -20 -11 -69 -8 -149 3 -100 7 -123 23 -141 14 -16
20 -17 27 -8 5 9 8 8 8 -6 0 -13 5 -17 20 -13 11 3 18 1 14 -4 -3 -5 2 -9 10
-9 9 0 16 5 16 11 0 5 5 7 12 3 7 -4 8 -3 4 4 -4 7 -20 12 -35 12 -53 0 -63
25 -64 166 -2 132 5 159 41 152 26 -5 102 -148 104 -196 1 -27 4 -38 10 -30 6
10 8 10 8 -2 1 -12 3 -11 11 3 9 16 15 12 51 -35 23 -29 77 -89 120 -133 60
-62 77 -85 73 -103 -3 -19 -1 -21 14 -12 10 5 21 6 25 3 3 -3 6 -64 6 -135 0
-91 3 -127 11 -122 7 4 7 -1 -1 -16 -9 -16 -9 -25 -1 -33 21 -21 31 15 31 119
0 78 -3 104 -15 114 -21 17 -19 27 4 26 27 -1 97 -55 113 -86 21 -41 21 -43 8
-35 -9 5 -10 -5 -6 -45 6 -57 33 -101 48 -78 5 9 8 8 8 -6 0 -13 5 -17 20 -13
11 3 18 1 14 -4 -3 -5 2 -9 10 -9 9 0 16 5 16 11 0 5 5 7 12 3 7 -4 8 -3 4 4
-4 7 -20 12 -35 12 -15 0 -35 8 -44 18 -17 18 -30 109 -17 117 3 2 29 -12 56
-31 27 -20 55 -39 63 -43 9 -6 11 -15 6 -27 -4 -11 -10 -28 -12 -39 -3 -16 1
-15 25 8 l29 28 114 -67 c63 -37 125 -73 138 -81 l24 -15 -32 -20 c-17 -11
-28 -25 -24 -31 5 -8 8 -8 11 1 2 7 9 12 15 12 6 0 18 7 28 16 11 10 19 12 24
4 4 -6 1 -9 -7 -8 -9 2 -14 -15 -18 -63 l-5 -66 -60 16 c-54 15 -60 19 -57 40
2 13 -1 21 -6 17 -5 -3 -8 7 -6 22 2 26 2 26 -12 8 -8 -11 -14 -28 -14 -38 0
-12 -7 -18 -22 -17 -35 1 -123 34 -121 44 1 6 -18 10 -42 10 -37 0 -49 6 -80
38 -21 21 -40 36 -43 33 -3 -3 -11 -1 -19 6 -9 7 -17 8 -24 1 -6 -6 -26 -7
-53 -2 -55 10 -206 80 -226 104 -8 10 -10 16 -4 12 14 -8 46 37 43 61 -1 9 1
25 5 34 4 9 5 48 2 85 -3 37 -6 76 -7 86 0 9 -5 17 -10 17 -6 0 -9 5 -7 12 3
7 -7 23 -20 35 -41 38 -59 27 -21 -13 11 -12 24 -37 29 -56 4 -18 11 -42 16
-52 5 -14 4 -17 -5 -11 -10 6 -12 -7 -9 -56 5 -69 -11 -126 -38 -136 -21 -8
-104 33 -104 51 0 7 -7 19 -16 27 -14 11 -14 13 1 21 13 8 15 24 14 86 -3 94
6 140 28 138 9 0 18 6 20 14 4 13 3 13 -6 0 -7 -10 -11 -11 -11 -2 0 10 -4 10
-20 0 -11 -7 -20 -21 -20 -30 0 -9 -7 -21 -16 -26 -13 -7 -15 -25 -12 -110 1
-56 -1 -102 -5 -102 -8 0 -88 39 -97 47 -3 3 -7 48 -10 101 -4 73 -8 96 -18
94 -8 -1 -11 2 -7 8 13 21 -17 9 -43 -17 -15 -15 -28 -25 -29 -23 -1 3 -5 2
-9 -3 -14 -13 22 -7 42 8 10 8 22 15 25 15 3 0 3 -28 1 -61 -4 -49 -2 -60 8
-54 9 5 11 4 6 -4 -4 -6 -2 -19 6 -28 11 -14 11 -16 -2 -8 -8 5 -20 10 -26 11
-7 1 -46 25 -87 53 -68 45 -76 54 -79 86 -2 20 -7 34 -13 33 -5 -2 -9 -11 -7
-22 2 -16 0 -17 -14 -5 -9 7 -23 14 -31 15 -16 3 -132 90 -208 157 l-50 45 0
120 c0 113 -5 145 -22 128 -4 -4 -9 -52 -11 -106 -3 -55 -7 -100 -11 -100 -4
0 -35 28 -69 63 -62 62 -62 63 -62 120 0 66 -11 73 -31 20 l-14 -36 -82 94
c-64 73 -83 101 -83 124 0 21 3 26 9 16 7 -11 12 -8 26 13 29 44 34 279 6 261
-10 -6 -25 24 -22 42 4 28 -81 50 -104 27 -8 -9 -19 -13 -24 -9 -5 3 -17 -5
-25 -17 -17 -24 -21 -42 -8 -34 4 2 8 -4 8 -14 0 -13 -4 -16 -12 -9 -8 6 -10
2 -8 -17 1 -15 -1 -36 -5 -47 -7 -18 -13 -13 -49 41 -23 33 -42 65 -42 71 0 5
-11 22 -24 38 -12 15 -53 83 -90 149 -59 107 -67 129 -68 178 -1 31 -5 56 -9
56 -4 0 -5 9 -2 19 5 21 -51 86 -67 76 -14 -9 -53 87 -42 105 5 9 10 93 11
186 2 168 2 171 -19 169 -12 -1 -25 -7 -29 -14 -5 -7 -10 -12 -12 -10 -11 6
-49 -15 -49 -28 0 -12 6 -11 35 6 l35 20 -1 -142 -1 -142 -34 100 c-19 55 -51
160 -70 233 -32 120 -34 138 -24 185 12 61 12 167 -1 218 -5 19 -22 48 -39 62
-25 23 -30 35 -30 72 0 33 3 43 13 39 20 -7 67 13 67 30 0 7 6 13 13 12 6 0
13 3 14 8 1 5 7 12 13 16 13 8 23 184 13 233 -7 36 -58 91 -78 83 -8 -3 -15 0
-15 7 0 8 -4 6 -10 -3 -7 -11 -10 -11 -10 -2 0 7 -4 10 -10 7 -20 -12 -9 -23
30 -29 32 -5 41 -11 46 -32 4 -16 12 -23 20 -20 8 3 14 -1 14 -10 0 -8 -4 -13
-8 -10 -4 2 -9 -41 -10 -97 -3 -132 -2 -126 -27 -151 -21 -21 -59 -26 -75 -10
-14 14 -25 310 -12 318 7 4 8 15 3 29 -5 13 -7 45 -6 73 2 27 7 92 10 144 9
131 48 372 84 522 100 420 287 835 542 1200 40 58 59 95 57 110 -2 19 -15 6
-70 -73 -356 -508 -560 -1038 -635 -1649 -24 -201 -24 -620 1 -815 144 -1142
781 -2104 1771 -2675 454 -261 1002 -425 1530 -456 91 -5 118 -11 158 -32 26
-14 47 -30 47 -35 0 -10 -174 -3 -345 14 -1184 120 -2229 814 -2806 1860 -235
426 -385 922 -430 1421 -15 169 -6 624 16 778 88 629 316 1194 677 1677 74 99
88 124 88 156 0 35 2 37 33 37 28 1 42 12 102 81 82 94 234 242 355 344 521
439 1141 717 1817 814 729 105 1464 -14 2126 -344 367 -184 624 -372 941 -687
l208 -208 54 0 c30 0 54 4 54 8 0 11 -53 74 -168 200 -287 311 -718 625 -1120
814 -349 164 -707 268 -1109 324 -141 19 -542 32 -703 22z m926 -1075 c158
-25 335 -95 469 -186 83 -57 227 -197 294 -287 218 -292 294 -692 201 -1056
-88 -345 -323 -637 -636 -792 -697 -345 -1510 73 -1675 861 -30 142 -30 352 0
494 40 193 113 354 226 504 267 356 693 531 1121 462z m-1687 -1267 c72 -170
131 -315 131 -322 0 -12 -50 -14 -276 -14 -258 0 -276 1 -271 18 3 9 62 152
132 317 70 165 129 306 132 313 3 7 9 10 13 5 4 -4 67 -147 139 -317z m411
-1295 c0 20 13 1 30 -44 10 -29 14 -68 12 -124 l-4 -83 -69 0 -69 0 0 110 c0
86 3 112 15 122 9 7 21 18 28 24 9 8 18 7 34 -3 18 -12 23 -12 23 -2z m1734
-14 c14 -10 26 -24 26 -32 0 -8 4 -15 10 -15 5 0 7 8 4 18 -5 14 -4 14 4 3 6
-9 7 -22 2 -30 -4 -9 -8 -52 -8 -96 l1 -80 -72 -3 -71 -3 -2 73 c-3 128 -1
141 21 159 11 9 18 18 16 21 -12 12 47 -1 69 -15z m-4550 -13 c3 -8 2 -12 -4
-9 -6 3 -10 10 -10 16 0 14 7 11 14 -7z m3793 5 c21 -7 30 -15 26 -25 -3 -8
-1 -14 3 -14 5 0 8 -42 7 -92 l-2 -93 -70 -3 -71 -3 0 62 c0 49 -3 60 -14 56
-10 -4 -13 -1 -9 8 3 8 9 12 14 9 5 -3 9 0 9 6 0 6 -7 13 -15 16 -8 4 -15 11
-15 16 0 6 7 4 16 -3 15 -12 16 -10 13 27 l-4 40 40 2 c22 1 54 -3 72 -9z
m284 1 c10 -6 19 -17 19 -25 0 -16 15 -20 23 -7 2 4 1 0 -2 -8 -2 -8 -6 -53
-7 -100 l-2 -85 -71 -3 -71 -3 -2 73 c-2 105 -1 138 6 145 3 3 23 9 43 13 21
4 39 8 41 9 2 0 12 -4 23 -9z m970 -13 c-10 -9 -11 -8 -5 6 3 10 9 15 12 12 3
-3 0 -11 -7 -18z m-1116 -22 c0 -16 5 -29 10 -28 6 1 11 -13 12 -30 1 -32 1
-32 -10 -7 -10 22 -12 15 -15 -53 l-3 -78 -31 3 -31 3 2 75 c1 41 -3 89 -8
107 -11 39 -6 45 39 41 32 -3 35 -6 35 -33z m-890 -30 c1 -26 -2 -41 -6 -33
-8 14 -8 91 -1 83 3 -2 6 -25 7 -50z m2011 5 c0 -12 -4 -16 -9 -11 -5 5 -6 14
-3 20 10 15 12 14 12 -9z m-341 0 c3 -5 1 -10 -4 -10 -6 0 -11 5 -11 10 0 6 2
10 4 10 3 0 8 -4 11 -10z m-1834 -23 c-10 -9 -11 -8 -5 6 3 10 9 15 12 12 3
-3 0 -11 -7 -18z m1556 -10 c1 -29 1 -30 -8 -9 -5 13 -7 28 -3 33 8 14 9 12
11 -24z m-1736 -14 c-12 -20 -14 -14 -5 12 4 9 9 14 11 11 3 -2 0 -13 -6 -23z
m1151 -5 c-9 -9 -12 -7 -12 12 0 19 3 21 12 12 9 -9 9 -15 0 -24z m-3914 -420
c7 -32 9 -65 4 -83 -7 -26 -10 -22 -20 42 -14 86 -15 93 -4 93 5 0 14 -24 20
-52z m2905 -226 c70 -1 127 -6 127 -10 -1 -4 -43 -38 -95 -77 -52 -38 -94 -77
-95 -86 0 -9 14 -62 31 -118 17 -56 29 -104 26 -107 -3 -3 -50 25 -106 62
l-100 67 -106 -72 c-58 -40 -105 -68 -105 -64 0 4 16 59 35 122 19 62 35 115
35 116 0 2 -46 38 -102 81 l-103 79 130 5 130 5 37 105 c20 58 39 114 43 125
4 14 18 -15 49 -105 l43 -125 126 -3z m1470 122 l42 -119 123 -3 c67 -1 122
-6 122 -10 0 -4 -43 -41 -95 -81 -52 -40 -95 -76 -95 -80 0 -3 16 -55 35 -116
19 -60 35 -113 35 -118 0 -4 -47 24 -105 63 -57 38 -107 70 -110 70 -3 0 -47
-29 -98 -63 -127 -88 -119 -85 -102 -30 58 186 59 192 42 211 -9 9 -52 44 -96
77 -44 33 -80 63 -81 68 0 4 56 7 124 7 l124 0 41 116 c23 63 41 120 41 126 0
23 11 -1 53 -118z m-818 -84 l39 -120 129 0 c72 0 127 -4 125 -9 -1 -5 -44
-41 -95 -80 -50 -39 -94 -74 -96 -78 -3 -5 10 -57 29 -118 19 -60 33 -114 31
-118 -1 -4 -49 24 -105 63 l-103 70 -102 -70 c-56 -39 -103 -67 -105 -62 -1 4
13 59 32 121 l34 112 -67 53 c-36 29 -81 63 -98 76 -18 13 -33 27 -33 32 0 4
57 9 128 10 l127 3 40 118 c22 64 42 117 45 117 3 0 24 -54 45 -120z m1597 7
c3 -16 0 -24 -9 -24 -8 0 -11 7 -8 14 3 8 5 19 5 24 0 18 8 9 12 -14z m-3342
-68 c0 -6 -4 -7 -10 -4 -5 3 -10 11 -10 16 0 6 5 7 10 4 6 -3 10 -11 10 -16z
m-1632 -205 c-3 -14 -5 -12 -10 9 -3 19 -2 25 4 19 6 -6 8 -18 6 -28z m4946
14 c12 -16 16 -49 17 -118 0 -62 3 -88 9 -75 5 11 9 14 9 7 1 -7 -6 -26 -15
-43 -8 -17 -12 -40 -9 -52 5 -17 4 -19 -4 -7 -7 9 -11 10 -11 3 0 -10 -25 -23
-56 -29 -18 -3 -35 11 -36 32 -3 40 56 304 69 304 6 0 19 -10 27 -22z m1603
-300 c-3 -8 -6 -5 -6 6 -1 11 2 17 5 13 3 -3 4 -12 1 -19z m-4751 -151 c12 4
14 -21 14 -165 0 -94 -4 -173 -8 -176 -12 -7 -58 44 -67 74 -4 17 -3 21 3 11
6 -8 10 25 10 98 0 70 5 121 13 141 8 16 15 26 17 21 2 -6 10 -7 18 -4z
m-1725 -11 c5 3 9 -7 9 -21 0 -15 4 -24 10 -20 6 3 10 2 10 -4 0 -5 3 -18 6
-28 5 -15 4 -15 -5 -3 -6 8 -11 11 -11 5 -1 -16 -39 58 -39 75 0 10 2 11 6 2
2 -6 9 -10 14 -6z m4933 -12 c3 -8 2 -12 -4 -9 -6 3 -10 10 -10 16 0 14 7 11
14 -7z m-2314 -710 l0 -716 -67 37 c-85 47 -188 116 -242 161 l-41 36 0 592
c0 326 3 596 7 599 3 4 82 7 175 7 l168 0 0 -716z m800 -109 l0 -824 -61 -43
c-112 -79 -104 -76 -136 -46 -15 14 -54 42 -85 62 l-58 37 0 819 0 820 170 0
170 0 0 -825z m818 221 c2 -560 1 -601 -15 -619 -25 -27 -214 -152 -284 -188
l-59 -29 0 720 0 720 178 -2 177 -3 3 -599z m1999 542 c-3 -8 -6 -5 -6 6 -1
11 2 17 5 13 3 -3 4 -12 1 -19z m-5767 -397 c0 22 17 -3 31 -46 15 -48 13
-219 -4 -255 -7 -14 -19 -26 -27 -28 -15 -3 -84 80 -98 118 -12 32 1 193 16
198 7 2 18 10 25 17 9 10 16 9 34 -2 18 -12 23 -13 23 -2z m4430 -1 c0 -7 -87
-80 -95 -80 -9 0 6 42 23 65 13 18 72 30 72 15z m228 -46 c-3 -14 -5 -12 -10
9 -3 19 -2 25 4 19 6 -6 8 -18 6 -28z m-3502 -2 c55 -40 120 -115 188 -216
289 -430 552 -640 1086 -866 170 -72 213 -96 298 -162 l62 -50 48 40 c74 61
134 95 307 170 88 38 214 96 280 130 327 163 579 393 804 729 104 156 221 267
265 250 19 -8 20 -40 2 -82 l-12 -30 -12 33 c-12 36 -34 41 -70 16 -15 -10
-22 -25 -22 -49 0 -19 4 -36 8 -39 5 -3 48 -75 96 -160 l87 -156 -26 -47 c-14
-27 -54 -87 -88 -135 -261 -364 -686 -661 -1302 -908 -198 -80 -259 -108 -323
-152 l-43 -29 -52 34 c-74 49 -110 66 -312 147 -214 85 -457 203 -613 297
-325 195 -632 486 -768 730 -41 72 -49 45 77 265 44 75 79 141 79 146 0 19
-41 60 -64 64 -20 4 -27 0 -34 -21 l-10 -26 -11 28 c-31 78 4 100 75 49z
m4291 -34 c-3 -8 -6 -5 -6 6 -1 11 2 17 5 13 3 -3 4 -12 1 -19z m-4592 2 c3
-5 1 -10 -4 -10 -6 0 -11 5 -11 10 0 6 2 10 4 10 3 0 8 -4 11 -10z m-794 -23
c-10 -9 -11 -8 -5 6 3 10 9 15 12 12 3 -3 0 -11 -7 -18z m-180 -28 c-5 -13
-10 -19 -10 -12 -1 15 10 45 15 40 3 -2 0 -15 -5 -28z m4573 9 c9 -34 8 -38
-13 -38 -28 0 -47 26 -31 45 18 22 37 18 44 -7z m-3339 -60 c14 -6 25 -14 25
-17 -1 -20 -159 -276 -171 -279 -23 -4 -69 37 -69 62 0 12 12 33 26 47 30 28
71 106 104 197 l23 63 18 -31 c11 -17 30 -36 44 -42z m50 47 c0 -13 -8 -21
-22 -23 -17 -3 -23 2 -23 16 0 10 3 22 7 26 13 13 38 1 38 -19z m3385 -37 c33
-92 68 -159 102 -194 19 -21 29 -40 26 -54 -4 -28 -51 -65 -71 -57 -14 5 -174
275 -166 280 2 2 17 11 32 21 15 9 33 28 39 42 6 13 12 24 13 24 1 0 13 -28
25 -62z m274 -354 c3 -8 2 -12 -4 -9 -6 3 -10 10 -10 16 0 14 7 11 14 -7z
m-167 -67 c1 -29 1 -30 -8 -9 -5 13 -7 28 -3 33 8 14 9 12 11 -24z m-4265 -19
c-9 -9 -12 -7 -12 12 0 19 3 21 12 12 9 -9 9 -15 0 -24z m4748 -58 c-5 -22 -8
-27 -9 -13 -1 21 9 56 14 51 2 -2 0 -19 -5 -38z m-313 -62 c-3 -7 -5 -2 -5 12
0 14 2 19 5 13 2 -7 2 -19 0 -25z m-3913 -4 c3 -8 2 -12 -4 -9 -6 3 -10 10
-10 16 0 14 7 11 14 -7z m16 -67 c0 -5 -4 -5 -10 -2 -5 3 -10 14 -10 23 0 15
2 15 10 2 5 -8 10 -19 10 -23z m4070 -12 c0 -5 -5 -3 -10 5 -5 8 -10 20 -10
25 0 6 5 3 10 -5 5 -8 10 -19 10 -25z m-740 -170 c7 -8 15 -13 19 -11 8 5 4
-189 -5 -241 -9 -61 -79 -88 -120 -47 -17 17 -19 32 -17 124 l1 105 48 43 c54
47 57 48 74 27z m205 -60 c1 -26 -2 -41 -6 -33 -8 14 -8 91 -1 83 3 -2 6 -25
7 -50z m-164 -18 c-10 -9 -11 -8 -5 6 3 10 9 15 12 12 3 -3 0 -11 -7 -18z
m-171 -52 c0 -5 -5 -3 -10 5 -5 8 -10 20 -10 25 0 6 5 3 10 -5 5 -8 10 -19 10
-25z m-28 -61 c-2 -70 14 -121 36 -116 7 1 12 -3 12 -9 0 -5 14 -15 31 -21 17
-6 27 -14 22 -18 -11 -10 -222 -97 -254 -105 -20 -5 -28 -2 -33 11 -6 16 -9
16 -29 -7 -12 -14 -18 -19 -13 -12 15 23 -8 14 -53 -22 -24 -19 -45 -35 -47
-35 -17 0 -32 15 -27 27 5 12 3 14 -7 8 -9 -5 -11 -4 -6 4 4 6 2 19 -5 27 -10
12 -14 12 -20 2 -7 -10 -9 -9 -9 4 0 11 -13 23 -32 31 l-33 13 25 16 c152 92
172 102 192 89 16 -10 19 -10 13 1 -4 7 2 4 12 -8 10 -12 26 -24 36 -27 26
-10 77 4 77 20 0 8 5 11 10 8 6 -3 10 -2 10 4 0 21 -17 19 -43 -5 -15 -14 -27
-20 -27 -14 0 6 -8 10 -17 8 -21 -4 -60 40 -47 51 13 11 106 76 123 86 12 7
13 -2 8 -48 -6 -57 6 -84 24 -56 12 19 11 32 -1 24 -5 -3 -10 -2 -10 4 0 5 4
12 9 15 14 9 19 54 8 65 -8 8 -7 11 1 11 7 0 12 7 12 15 0 15 29 36 45 31 5
-1 8 -34 7 -72z m28 26 c0 -5 -5 -10 -11 -10 -5 0 -7 5 -4 10 3 6 8 10 11 10
2 0 4 -4 4 -10z m-2879 -43 c-10 -9 -11 -8 -5 6 3 10 9 15 12 12 3 -3 0 -11
-7 -18z m2871 1 c-7 -7 -12 -8 -12 -2 0 14 12 26 19 19 2 -3 -1 -11 -7 -17z
m-95 -20 c-3 -7 -5 -2 -5 12 0 14 2 19 5 13 2 -7 2 -19 0 -25z m-2473 -4 c3
-8 2 -12 -4 -9 -6 3 -10 10 -10 16 0 14 7 11 14 -7z m2573 -16 c-3 -8 -6 -5
-6 6 -1 11 2 17 5 13 3 -3 4 -12 1 -19z m-2557 -51 c0 -5 -4 -5 -10 -2 -5 3
-10 14 -10 23 0 15 2 15 10 2 5 -8 10 -19 10 -23z m2052 -129 c-18 -18 -15
-27 8 -21 11 3 20 10 20 17 0 6 5 4 10 -4 5 -8 10 -11 10 -6 0 5 9 -3 20 -17
11 -14 20 -30 20 -36 0 -6 5 -11 10 -11 7 0 7 -6 1 -19 -7 -11 -34 -24 -73
-34 -34 -9 -64 -14 -66 -12 -2 2 -4 27 -5 57 -1 38 2 52 11 51 6 -2 12 3 12
10 0 13 19 37 29 37 3 0 0 -5 -7 -12z m-2075 -30 c-3 -8 -6 -5 -6 6 -1 11 2
17 5 13 3 -3 4 -12 1 -19z m2015 -13 c-2 -14 -8 -25 -13 -25 -10 0 -12 -31 -3
-54 3 -9 11 -13 17 -9 6 3 7 1 3 -6 -4 -6 -11 -9 -16 -6 -4 3 -13 -2 -20 -10
-19 -23 -40 -18 -40 9 0 13 -3 37 -6 54 -6 28 -3 32 32 51 50 26 52 26 46 -4z
m-1388 -50 c77 -36 116 -60 116 -70 0 -9 5 -13 10 -10 6 4 5 -5 -2 -19 -6 -14
-18 -26 -27 -26 -35 0 -206 31 -215 39 -9 8 -10 141 -1 141 1 0 55 -25 119
-55z m1278 -14 c9 -63 -18 -84 -111 -85 -31 -1 -45 3 -48 14 -4 13 -3 13 6 0
9 -12 11 -9 11 13 0 25 8 32 63 57 34 16 65 29 68 30 4 0 9 -13 11 -29z m112
3 c3 -8 2 -12 -4 -9 -6 3 -10 10 -10 16 0 14 7 11 14 -7z m-93 -41 c-8 -15 -9
-12 -7 12 5 39 7 44 13 23 2 -10 0 -25 -6 -35z m-195 -35 c-1 -14 -11 -25 -29
-31 -40 -13 -56 4 -28 32 28 28 59 28 57 -1z m-876 -9 c97 -36 95 -55 -5 -44
-64 6 -65 7 -65 36 0 35 0 35 70 8z m768 -21 c-3 -7 -20 -14 -39 -16 l-34 -2
25 15 c31 18 53 19 48 3z"/>
<path d="M5085 7145 c-192 -40 -354 -178 -406 -346 -24 -75 -25 -211 -4 -294
49 -185 156 -283 549 -503 181 -101 246 -178 233 -275 -9 -68 -66 -124 -151
-149 -59 -18 -209 -15 -286 5 -65 17 -227 92 -307 142 l-43 26 1 -23 c2 -82
36 -468 42 -474 3 -4 55 -19 114 -35 289 -74 556 -62 752 34 93 45 208 160
250 250 82 173 80 391 -5 534 -77 128 -222 241 -498 388 -89 47 -170 99 -200
126 -51 46 -51 47 -51 107 0 55 3 64 33 95 58 60 150 72 284 38 90 -23 196
-67 279 -116 33 -19 64 -35 70 -35 15 0 12 415 -3 427 -14 11 -100 36 -223 65
-109 26 -336 33 -430 13z"/>
<path d="M3198 2648 c-25 -35 -64 -91 -87 -126 l-42 -63 47 -77 c137 -226 366
-450 664 -650 166 -112 270 -167 525 -280 99 -44 253 -114 342 -155 l163 -76
327 145 c181 80 380 172 443 205 367 192 743 524 904 799 20 34 36 65 36 71 0
14 -159 249 -168 248 -4 0 -45 -52 -92 -116 -164 -223 -354 -413 -557 -559
-107 -77 -326 -191 -526 -273 -178 -74 -256 -112 -320 -157 -26 -19 -49 -34
-52 -34 -3 0 -26 16 -52 36 -57 43 -155 93 -333 169 -284 121 -475 229 -640
362 -116 93 -326 315 -429 454 -51 68 -97 128 -101 132 -4 5 -27 -20 -52 -55z
m112 -141 c0 -11 -127 -117 -150 -125 -6 -2 -10 2 -9 10 0 12 135 126 152 127
4 1 7 -5 7 -12z m50 -76 c0 -10 -11 -52 -24 -92 -13 -41 -23 -75 -22 -76 1 -1
26 20 56 47 30 27 59 49 63 50 22 1 -5 -33 -70 -89 -88 -75 -97 -68 -59 46 14
43 26 82 26 87 0 4 -27 -15 -59 -43 -34 -29 -62 -47 -66 -41 -3 5 11 24 32 42
21 18 53 47 73 65 36 33 50 34 50 4z m2898 -19 c-28 -32 -28 -40 -2 -57 26
-17 27 -17 49 11 13 16 26 26 30 22 4 -4 -2 -19 -14 -34 l-22 -28 26 -25 26
-26 29 35 c16 19 32 32 36 27 9 -9 -48 -82 -64 -82 -12 0 -152 106 -152 115 0
14 64 82 68 71 2 -7 -2 -20 -10 -29z m-92 -112 c-33 -40 -33 -70 0 -109 19
-23 34 -31 58 -31 31 0 69 25 79 52 2 7 8 10 12 5 13 -11 -16 -57 -47 -73 -44
-23 -77 -17 -114 20 -47 47 -48 104 -4 148 39 39 51 29 16 -12z m-2652 -26
c35 -42 26 -58 -12 -21 -27 26 -27 26 -52 7 l-25 -19 23 -23 c34 -37 27 -57
-8 -23 l-30 29 -34 -33 c-23 -22 -36 -29 -41 -21 -7 12 121 139 140 139 6 0
23 -16 39 -35z m2670 -214 c-8 -8 -34 -5 -92 9 -44 12 -84 21 -88 21 -5 0 16
-25 46 -55 37 -37 51 -58 44 -65 -7 -7 -32 14 -78 66 -42 45 -65 79 -59 85 5
5 43 -1 96 -15 48 -12 87 -20 87 -17 0 4 -22 29 -50 56 -27 26 -46 53 -43 58
3 5 37 -23 76 -62 51 -50 68 -74 61 -81z m-2552 102 c54 -49 35 -125 -41 -164
-58 -29 -121 9 -121 74 0 45 22 83 59 103 40 22 67 18 103 -13z m2298 -91 c0
-5 -11 -18 -25 -29 -30 -24 -31 -33 -7 -56 18 -15 21 -15 46 5 37 29 48 14 13
-17 l-28 -24 22 -31 21 -30 27 25 c26 25 52 34 50 19 0 -5 -18 -23 -40 -40
l-41 -33 -64 78 -65 77 38 32 c39 34 53 40 53 24z m-2171 -30 c17 -16 31 -37
31 -46 0 -30 -20 -55 -45 -55 -19 0 -25 -5 -25 -20 0 -32 -30 -84 -41 -73 -7
7 -4 23 7 47 17 35 17 37 -3 57 l-20 20 -26 -30 c-23 -28 -47 -41 -47 -25 0
10 122 154 130 154 4 0 22 -13 39 -29z m2051 -71 c0 -5 -5 -10 -10 -10 -6 0
-22 -11 -35 -25 -37 -36 -34 -86 6 -119 38 -32 60 -33 93 -3 26 22 26 22 7 47
-16 20 -21 22 -35 11 -13 -11 -16 -11 -16 0 0 8 10 20 22 28 19 12 23 11 39
-10 34 -44 34 -61 0 -91 -41 -37 -88 -37 -130 -2 -35 29 -49 80 -31 115 22 44
90 89 90 59z m-1943 -16 c3 -9 -4 -49 -15 -90 -12 -46 -16 -72 -9 -66 110 84
147 102 147 70 0 -22 -95 -167 -104 -158 -5 5 7 35 32 74 23 37 39 66 36 66
-2 0 -32 -20 -66 -45 -69 -50 -93 -57 -83 -24 20 61 43 149 40 149 -2 0 -25
-29 -51 -65 -30 -41 -51 -62 -57 -56 -10 10 99 160 116 161 4 0 10 -7 14 -16z
m1832 -152 c43 -76 48 -90 34 -94 -8 -1 -102 150 -103 165 0 4 6 7 13 7 6 0
32 -35 56 -78z m-1605 -89 c-8 -49 -14 -94 -14 -100 0 -7 -4 -13 -10 -13 -5 0
-10 17 -10 39 0 34 -4 40 -30 51 -28 11 -33 10 -54 -9 -26 -24 -36 -27 -36 -8
0 8 32 44 70 81 92 89 102 83 84 -41z m1511 -51 c2 -2 20 4 40 12 43 18 45 19
45 8 0 -7 -82 -52 -95 -52 -13 0 -86 164 -80 179 5 11 18 -7 47 -64 22 -44 42
-81 43 -83z m-1353 83 c41 -20 42 -40 1 -24 -14 5 -27 8 -29 6 -2 -1 -19 -38
-39 -82 -23 -51 -39 -75 -46 -68 -6 6 3 37 26 88 20 42 34 79 33 80 -2 1 -13
8 -25 14 -13 6 -23 16 -23 21 0 10 29 0 102 -35z m1178 -65 c18 -44 36 -80 41
-80 6 0 25 7 44 14 26 11 35 12 35 3 0 -16 -89 -52 -100 -41 -11 12 -70 156
-70 171 0 34 21 6 50 -67z m-100 41 c0 -5 -13 -14 -30 -21 -32 -13 -37 -29
-20 -61 10 -18 13 -18 40 -4 16 8 34 15 40 15 21 0 9 -17 -25 -33 -35 -17 -36
-17 -20 -47 18 -34 20 -35 55 -15 28 16 50 19 50 7 0 -7 -82 -52 -95 -52 -6 0
-85 157 -85 170 0 5 17 18 38 29 42 23 52 25 52 12z m-1010 -26 c0 -20 -72
-165 -82 -165 -15 0 -8 24 29 102 34 74 53 96 53 63z m890 -35 c0 -6 -11 -16
-25 -22 l-25 -11 40 -73 c22 -40 40 -78 40 -84 0 -27 -22 -3 -60 66 -24 44
-46 74 -53 71 -7 -3 -20 -8 -29 -12 -10 -4 -18 -3 -18 2 0 9 106 72 123 73 4
0 7 -5 7 -10z m-735 -25 c41 -41 30 -119 -23 -162 -25 -20 -85 -16 -110 7 -29
27 -36 61 -22 104 24 73 106 100 155 51z m121 -146 l10 -94 34 68 c31 61 50
83 50 57 0 -24 -82 -171 -93 -167 -7 2 -16 42 -22 102 l-10 98 -34 -72 c-32
-64 -51 -88 -51 -61 0 24 82 171 93 167 7 -2 16 -42 23 -98z m512 16 c23 -47
42 -87 42 -90 0 -14 -36 0 -104 40 -42 24 -76 42 -76 39 0 -3 16 -35 36 -70
20 -36 33 -68 29 -72 -9 -9 -30 20 -72 102 -45 90 -33 98 64 40 41 -24 77 -44
80 -44 3 0 -11 29 -31 65 -41 74 -41 75 -23 75 7 0 32 -38 55 -85z m-184 -95
c34 -82 41 -120 17 -94 -13 13 -71 153 -71 170 0 34 19 8 54 -76z"/>
<path d="M3519 2131 c-49 -50 -29 -121 34 -121 28 0 87 63 87 93 0 61 -72 77
-121 28z"/>
<path d="M3700 2015 c-19 -20 -21 -27 -10 -40 16 -19 54 -19 70 0 10 12 9 20
-4 40 -20 31 -27 31 -56 0z"/>
<path d="M4047 1752 c-21 -22 -24 -31 -15 -40 21 -21 36 -13 43 24 3 20 5 38
2 40 -2 2 -15 -9 -30 -24z"/>
<path d="M4366 1610 c-65 -78 8 -177 79 -106 52 52 40 128 -21 134 -25 2 -37
-4 -58 -28z"/>
<path d="M4520 8317 c-3 -2 -41 -7 -85 -10 -397 -28 -853 -158 -1245 -353
-270 -135 -476 -268 -707 -458 -111 -92 -383 -359 -383 -376 0 -28 40 4 176
138 573 568 1250 899 2060 1009 182 24 667 24 844 0 826 -115 1505 -450 2077
-1024 73 -73 137 -133 143 -133 29 0 -4 41 -152 186 -304 297 -572 488 -943
669 -351 172 -695 275 -1105 331 -109 14 -669 32 -680 21z"/>
<path d="M7291 8028 c-158 -184 -221 -265 -215 -274 5 -7 74 -68 153 -135
l144 -123 43 49 c24 28 44 53 44 57 0 4 -38 39 -85 79 -47 40 -85 77 -85 81 0
5 19 31 41 58 l42 49 76 -65 76 -66 43 48 c23 27 42 53 42 59 0 5 -27 33 -61
60 -88 72 -86 68 -44 120 21 25 40 45 44 45 3 0 46 -35 96 -76 l89 -77 43 49
c23 27 42 54 42 59 0 8 -172 158 -277 242 l-27 22 -224 -261z"/>
<path d="M1862 8182 c-29 -26 -52 -50 -52 -55 0 -4 99 -124 221 -267 l221
-260 24 19 c63 49 95 83 91 94 -8 21 -428 512 -441 514 -6 2 -35 -19 -64 -45z"/>
<path d="M1566 7925 c-74 -51 -106 -85 -132 -140 -65 -137 18 -275 164 -275
28 0 87 11 133 24 132 38 147 40 174 22 33 -22 39 -50 19 -92 -21 -45 -79 -87
-147 -110 -64 -20 -64 -21 -45 -37 9 -6 41 -32 72 -56 l56 -43 49 31 c57 37
131 114 156 161 9 18 19 58 22 89 7 78 -32 153 -102 196 -65 40 -126 39 -270
-5 -99 -30 -111 -32 -134 -19 -16 9 -27 25 -29 42 -5 39 51 90 128 118 33 12
60 24 60 28 0 9 -107 101 -117 100 -4 0 -30 -15 -57 -34z"/>
<path d="M7838 7756 c-219 -78 -331 -321 -236 -513 30 -61 119 -151 184 -186
l51 -27 66 48 c37 26 67 50 67 54 0 3 -17 12 -37 19 -111 36 -202 143 -203
237 -1 127 163 254 284 221 48 -13 114 -73 137 -124 10 -22 19 -63 19 -92 0
-29 2 -53 5 -53 13 0 135 95 135 105 0 28 -41 128 -70 170 -42 62 -120 121
-182 140 -63 18 -170 19 -220 1z"/>
<path d="M1175 7448 c-19 -29 -35 -57 -35 -63 0 -5 68 -55 150 -109 83 -54
150 -102 150 -106 0 -3 -127 -37 -282 -74 -256 -61 -311 -78 -297 -89 2 -3
137 -93 298 -200 l295 -196 38 57 c21 31 38 60 38 64 0 4 -68 53 -151 109 -83
55 -147 104 -143 109 5 4 134 37 286 74 153 37 280 71 282 75 5 7 -571 401
-586 401 -4 0 -23 -24 -43 -52z"/>
<path d="M8304 7151 c-217 -125 -255 -151 -293 -203 -60 -82 -65 -183 -15
-287 81 -165 237 -220 396 -140 40 20 368 207 377 215 6 5 -27 75 -48 102
l-18 24 -192 -111 c-106 -61 -208 -113 -226 -117 -90 -16 -165 50 -165 147 0
36 6 47 43 83 23 23 119 85 214 139 95 54 175 102 178 107 6 9 -64 140 -75
140 -3 0 -82 -45 -176 -99z"/>
<path d="M1970 6165 l0 -915 205 0 205 0 2 363 3 362 265 2 265 2 3 171 2 170
-270 0 -270 0 0 205 0 205 325 0 325 0 0 175 0 175 -530 0 -530 0 0 -915z"/>
<path d="M682 6608 c-45 -100 -81 -182 -79 -184 4 -4 612 -276 621 -277 8 -2
180 363 174 368 -2 1 -29 14 -62 28 -54 25 -76 27 -76 8 0 -5 -20 -52 -44
-104 l-45 -96 -60 26 c-34 15 -61 32 -61 38 0 7 16 47 35 89 19 43 35 80 35
84 0 4 -27 19 -61 34 l-61 27 -40 -87 c-22 -48 -42 -89 -44 -91 -5 -6 -114 42
-114 51 0 4 20 53 45 109 25 56 45 104 45 108 0 7 -100 51 -116 51 -6 0 -47
-82 -92 -182z"/>
<path d="M8551 6385 c-172 -63 -315 -116 -317 -118 -2 -2 8 -36 23 -76 20 -55
30 -71 42 -68 9 3 66 23 128 45 64 24 115 37 118 32 3 -5 -38 -71 -91 -146
l-98 -137 29 -83 c16 -46 32 -84 35 -84 4 0 51 65 105 145 54 80 100 145 102
145 1 0 24 -13 50 -30 83 -53 193 -36 256 40 53 62 49 181 -9 339 -22 57 -43
106 -49 107 -5 1 -151 -49 -324 -111z m288 -133 c17 -64 9 -98 -32 -122 -65
-40 -128 -17 -168 62 -11 22 -19 42 -16 44 8 9 183 72 192 70 6 -2 16 -26 24
-54z"/>
<path d="M582 6139 c-44 -22 -76 -57 -108 -119 -20 -39 -85 -262 -78 -269 5
-5 658 -188 662 -186 6 5 43 147 39 151 -2 2 -53 18 -113 34 -60 17 -117 33
-127 36 -37 11 -8 28 142 80 85 30 156 56 159 58 6 7 51 170 48 174 -2 1 -78
-24 -168 -58 -91 -33 -167 -60 -170 -60 -3 0 -10 18 -17 41 -7 22 -30 58 -51
79 -61 61 -143 76 -218 39z m138 -144 c39 -20 50 -43 50 -104 0 -83 2 -82
-112 -50 -55 15 -102 30 -105 33 -7 6 35 97 54 118 20 22 73 23 113 3z"/>
<path d="M8755 5773 c-181 -42 -332 -77 -333 -79 -2 -1 4 -37 13 -78 12 -54
21 -76 32 -76 25 0 647 142 656 150 8 7 -20 139 -32 151 -3 4 -154 -27 -336
-68z"/>
<path d="M9083 5513 l-42 -4 7 -67 c4 -37 7 -87 7 -112 l0 -45 -269 -27 c-148
-15 -271 -30 -274 -32 -2 -3 -1 -39 3 -81 6 -68 9 -75 28 -75 12 0 136 12 275
26 140 14 256 24 258 21 2 -2 9 -50 15 -108 6 -57 12 -105 13 -107 2 -1 30 1
64 4 53 6 62 10 62 27 0 30 -50 538 -56 565 -3 15 -11 21 -27 20 -12 -1 -41
-3 -64 -5z"/>
<path d="M560 5496 c-70 -15 -111 -37 -167 -89 -67 -62 -95 -125 -101 -224 -5
-97 10 -151 63 -223 66 -90 172 -141 300 -143 100 -1 147 12 222 63 99 66 147
161 147 286 -1 165 -129 305 -305 334 -77 12 -89 12 -159 -4z m197 -181 c126
-53 154 -210 51 -288 -104 -80 -293 -45 -348 63 -25 49 -25 93 -1 147 42 92
179 127 298 78z"/>
<path d="M1528 4862 c-9 -2 -20 -12 -23 -23 -4 -11 -11 -17 -16 -14 -5 4 -9 2
-9 -4 0 -5 -8 -17 -17 -26 -13 -14 -14 -21 -5 -36 14 -22 15 -32 3 -25 -5 3
-8 -39 -7 -98 1 -113 8 -129 63 -152 37 -16 93 -8 93 13 0 8 5 11 10 8 6 -3
10 -2 10 4 0 21 -17 19 -43 -5 -15 -14 -27 -20 -27 -14 0 5 -8 10 -18 10 -11
0 -28 8 -39 18 -18 15 -19 29 -18 151 2 123 4 136 23 152 12 9 19 18 17 21 -2
2 7 3 20 3 30 -2 75 -31 75 -50 0 -8 4 -15 8 -15 9 0 7 -126 -3 -207 -5 -43
10 -67 26 -42 12 19 11 32 -1 24 -14 -9 -12 9 2 23 13 13 21 155 8 147 -4 -3
-11 2 -14 11 -9 23 -7 31 4 14 5 -8 12 -11 17 -7 4 5 3 11 -3 15 -5 4 -11 18
-11 31 -1 14 -12 34 -24 45 -19 18 -21 19 -16 3 4 -11 3 -16 -3 -12 -6 3 -10
14 -10 23 0 14 -2 15 -10 2 -8 -13 -10 -12 -15 1 -6 16 -16 18 -47 11z m116
-68 c3 -8 2 -12 -4 -9 -6 3 -10 10 -10 16 0 14 7 11 14 -7z m-167 -86 c-3 -8
-6 -5 -6 6 -1 11 2 17 5 13 3 -3 4 -12 1 -19z m170 -120 c-3 -7 -5 -2 -5 12 0
14 2 19 5 13 2 -7 2 -19 0 -25z"/>
<path d="M2241 4862 c-1 -15 47 -35 66 -28 8 3 11 1 8 -4 -3 -5 0 -22 8 -37 9
-20 12 -63 11 -148 -3 -150 -3 -142 -13 -127 -6 10 -10 10 -21 -3 -18 -21 -86
-20 -99 3 -6 9 -10 13 -10 7 0 -28 31 -50 70 -49 49 2 87 34 98 85 12 54 13
174 1 218 -12 47 -54 84 -87 78 -12 -2 -24 1 -27 7 -3 7 -5 6 -5 -2z m107 -77
c-3 -3 -9 2 -12 12 -6 14 -5 15 5 6 7 -7 10 -15 7 -18z"/>
<path d="M4818 4863 c-20 -5 -24 -18 -9 -28 6 -3 14 3 20 12 6 10 11 12 11 6
0 -18 20 -16 20 2 0 15 -9 17 -42 8z"/>
<path d="M6150 4855 c0 -8 5 -15 10 -15 6 0 10 7 10 15 0 8 -4 15 -10 15 -5 0
-10 -7 -10 -15z"/>
<path d="M6818 4862 c-20 -4 -24 -17 -9 -27 6 -3 14 3 20 12 6 10 11 12 11 6
0 -17 20 -17 20 0 0 14 -11 16 -42 9z"/>
<path d="M7083 4855 c-49 -21 -85 -113 -50 -129 10 -5 10 -7 0 -12 -8 -3 -13
-25 -13 -55 0 -28 4 -48 9 -45 5 3 12 -1 15 -10 3 -8 2 -12 -3 -9 -14 8 -24
-13 -17 -38 9 -34 56 -79 77 -74 10 3 19 1 21 -5 5 -14 58 9 58 26 0 7 7 13
16 12 17 -1 25 19 28 66 0 14 5 24 10 21 4 -3 6 37 3 89 -3 68 -10 103 -22
122 -23 35 -53 52 -68 37 -9 -9 -6 -13 11 -18 12 -3 25 -16 28 -30 4 -15 12
-22 20 -19 8 3 14 -1 14 -10 0 -8 -4 -13 -8 -10 -4 2 -9 -41 -10 -97 -3 -133
-2 -126 -27 -151 -37 -37 -115 -13 -115 36 0 11 -4 16 -11 12 -8 -5 -8 -1 0
14 6 11 11 65 11 120 0 69 5 109 15 128 8 16 15 24 15 17 0 -6 9 -9 20 -6 11
3 18 9 15 13 -3 5 1 11 7 13 9 4 8 6 -2 6 -8 0 -29 -6 -47 -14z m121 -41 c3
-8 2 -12 -4 -9 -6 3 -10 10 -10 16 0 14 7 11 14 -7z"/>
<path d="M7563 4855 c-49 -21 -85 -113 -50 -129 10 -5 10 -7 0 -12 -8 -3 -13
-25 -13 -55 0 -28 4 -48 9 -45 5 3 12 -1 15 -10 3 -8 2 -12 -3 -9 -14 8 -24
-13 -17 -38 9 -34 56 -79 77 -74 10 3 19 1 21 -5 5 -14 58 9 58 26 0 7 7 13
16 12 17 -1 25 19 28 66 0 14 5 24 10 20 17 -10 -1 184 -20 212 -23 35 -53 51
-67 37 -9 -9 -6 -13 11 -18 12 -3 25 -16 28 -30 4 -15 12 -22 20 -19 8 3 14
-1 14 -10 0 -8 -4 -13 -8 -10 -4 2 -9 -41 -10 -97 -3 -133 -2 -126 -27 -151
-37 -37 -115 -13 -115 36 0 11 -4 16 -11 12 -8 -5 -8 -1 0 14 6 11 11 65 11
120 0 69 5 109 15 128 8 16 15 24 15 17 0 -6 9 -9 20 -6 11 3 18 9 15 13 -3 5
1 11 7 13 9 4 8 6 -2 6 -8 0 -29 -6 -47 -14z m121 -41 c3 -8 2 -12 -4 -9 -6 3
-10 10 -10 16 0 14 7 11 14 -7z"/>
<path d="M8081 4862 c-1 -15 47 -35 66 -28 8 3 11 1 8 -4 -3 -5 0 -22 8 -37 9
-20 12 -63 11 -148 -3 -150 -3 -142 -13 -127 -6 10 -10 10 -21 -3 -18 -21 -86
-20 -99 3 -6 9 -10 13 -10 7 0 -28 31 -50 70 -49 49 2 87 34 98 86 13 54 13
195 1 203 -5 3 -10 17 -10 30 0 30 -47 68 -77 62 -12 -2 -24 1 -27 7 -3 7 -5
6 -5 -2z"/>
<path d="M2192 4841 c-12 -10 -22 -26 -22 -35 0 -9 -5 -16 -10 -16 -16 0 -11
-230 5 -253 11 -16 13 -16 19 -1 3 9 6 72 5 141 -1 114 0 126 20 147 35 38 22
51 -17 17z"/>
<path d="M6103 4852 c-8 -5 -9 -13 -3 -22 8 -12 10 -11 11 5 0 11 3 14 6 7 5
-13 23 -7 23 9 0 11 -20 12 -37 1z"/>
<path d="M6190 4840 c6 -11 15 -18 20 -15 4 3 10 -1 13 -7 2 -7 7 -10 11 -7 8
7 -32 49 -46 49 -5 0 -4 -9 2 -20z"/>
<path d="M6876 4848 c4 -7 16 -24 25 -38 22 -31 29 -205 10 -261 -10 -33 -40
-57 -66 -54 -24 2 -55 17 -55 26 0 6 -5 7 -11 3 -8 -4 -9 0 -4 15 7 24 -10 29
-19 6 -11 -29 76 -90 88 -62 3 8 5 8 5 1 1 -17 51 -4 51 13 0 8 4 12 10 8 16
-10 43 42 36 71 -4 14 -3 23 2 20 5 -3 9 31 9 75 0 43 -4 82 -9 85 -5 3 -6 14
-3 24 4 12 -4 29 -24 49 -30 31 -59 43 -45 19z m61 -240 c-3 -8 -6 -5 -6 6 -1
11 2 17 5 13 3 -3 4 -12 1 -19z"/>
<path d="M8032 4841 c-12 -10 -22 -26 -22 -35 0 -9 -5 -16 -10 -16 -16 0 -11
-230 5 -253 11 -16 13 -16 19 -1 3 9 6 72 5 141 -1 114 0 126 20 147 35 38 22
51 -17 17z"/>
<path d="M2023 4838 c-4 -7 -15 -13 -23 -13 -8 0 -16 -9 -18 -20 -2 -16 -1
-17 7 -5 19 27 23 1 22 -134 -1 -81 3 -137 9 -141 5 -3 10 -11 10 -16 0 -6 -5
-7 -11 -3 -7 4 -10 1 -7 -7 3 -8 11 -15 20 -17 12 -2 15 24 17 183 2 177 -3
209 -26 173z"/>
<path d="M2726 4834 c-3 -8 -10 -13 -14 -10 -5 3 -24 -4 -43 -16 -19 -12 -29
-23 -22 -25 6 -2 23 3 37 13 l26 16 2 -108 c0 -60 1 -114 1 -121 0 -9 4 -9 18
0 17 11 19 25 19 134 0 112 -9 156 -24 117z m5 -27 c-10 -9 -11 -8 -5 6 3 10
9 15 12 12 3 -3 0 -11 -7 -18z m5 -47 c0 -12 -4 -16 -9 -11 -5 5 -6 14 -3 20
10 15 12 14 12 -9z"/>
<path d="M5647 4844 c-9 -9 4 -35 14 -28 5 3 9 12 9 20 0 14 -12 19 -23 8z"/>
<path d="M6760 4816 c-18 -30 -21 -48 -19 -138 1 -57 3 -106 6 -110 2 -4 10
-5 18 -1 11 4 15 23 15 79 0 43 -4 74 -10 74 -5 0 -10 -5 -10 -12 0 -6 -3 -9
-6 -6 -3 4 2 20 10 37 9 16 16 38 15 48 -1 12 -3 10 -8 -7 -6 -20 -8 -22 -13
-8 -7 17 24 62 36 51 3 -3 6 -1 6 5 0 26 -20 20 -40 -12z"/>
<path d="M7380 4841 c0 -6 5 -13 10 -16 6 -3 10 1 10 9 0 9 -4 16 -10 16 -5 0
-10 -4 -10 -9z"/>
<path d="M7863 4838 c-4 -7 -15 -13 -23 -13 -8 0 -16 -9 -18 -20 -2 -16 -1
-17 7 -5 19 27 23 1 22 -134 -1 -81 3 -137 9 -141 5 -3 10 -11 10 -16 0 -6 -5
-7 -11 -3 -7 4 -10 1 -7 -7 3 -8 11 -15 20 -17 12 -2 15 24 17 183 2 177 -3
209 -26 173z"/>
<path d="M1775 4816 c-13 -13 -26 -21 -29 -18 -3 3 -6 0 -6 -6 0 -16 12 -15
36 3 10 8 21 15 24 15 3 0 4 -65 3 -145 -2 -93 1 -144 7 -140 6 3 10 -5 10
-19 0 -14 4 -26 9 -26 14 0 14 329 0 346 -16 20 -26 18 -54 -10z"/>
<path d="M2490 4820 c-5 -8 -12 -14 -17 -13 -17 5 -43 -9 -43 -24 0 -12 6 -11
35 6 l35 20 0 -147 c1 -106 4 -152 14 -164 7 -10 16 -18 19 -18 2 0 5 80 6
178 2 174 1 178 -19 178 -12 0 -25 -7 -30 -16z m28 -26 c-3 -14 -5 -12 -10 9
-3 19 -2 25 4 19 6 -6 8 -18 6 -28z m5 -259 c-3 -9 -8 -14 -10 -11 -3 3 -2 9
2 15 9 16 15 13 8 -4z"/>
<path d="M2895 4816 c-13 -13 -26 -21 -29 -18 -3 3 -6 0 -6 -6 0 -16 12 -15
36 3 29 22 33 18 27 -22 l-6 -38 21 19 c24 21 29 55 10 74 -17 17 -26 15 -53
-12z"/>
<path d="M6575 4816 c-13 -13 -26 -21 -29 -18 -3 3 -6 0 -6 -6 0 -16 12 -15
36 3 10 8 21 15 24 15 3 0 4 -65 3 -145 -2 -93 1 -144 7 -140 6 3 10 -5 10
-19 0 -14 4 -26 9 -26 14 0 14 329 0 346 -16 20 -26 18 -54 -10z"/>
<path d="M7328 4816 c-21 -11 -38 -28 -38 -36 1 -12 4 -11 15 4 7 10 18 15 24
11 6 -3 11 1 11 9 0 22 20 20 21 -1 0 -10 0 -87 0 -170 0 -143 1 -153 19 -153
17 0 18 11 19 153 1 129 -1 156 -16 178 l-18 27 -37 -22z"/>
<path d="M4338 4812 c-40 -24 -38 -48 2 -27 17 9 30 22 30 30 0 8 -1 15 -2 14
-2 0 -15 -8 -30 -17z"/>
<path d="M5593 4811 c-12 -11 -24 -17 -27 -14 -3 4 -6 -1 -6 -10 0 -10 5 -14
15 -11 8 4 15 10 15 15 0 5 3 8 8 7 12 -2 42 14 42 23 0 15 -25 10 -47 -10z"/>
<path d="M4225 4810 c3 -5 8 -10 11 -10 2 0 4 5 4 10 0 6 -5 10 -11 10 -5 0
-7 -4 -4 -10z"/>
<path d="M9095 4718 c-77 -49 -158 -99 -180 -112 l-40 -24 -172 12 -171 11 -7
-78 c-4 -43 -6 -80 -4 -82 2 -2 81 -8 174 -15 136 -9 174 -15 190 -29 11 -10
82 -73 158 -140 76 -67 142 -119 148 -116 5 4 9 41 9 83 l-1 77 -75 65 c-41
35 -84 74 -95 86 l-19 21 102 63 c57 35 106 68 109 73 6 8 21 189 17 192 -2 1
-66 -38 -143 -87z"/>
<path d="M1943 4785 c0 -11 4 -12 14 -4 7 6 13 13 13 15 0 2 -6 4 -13 4 -8 0
-14 -7 -14 -15z"/>
<path d="M7783 4785 c0 -11 4 -12 14 -4 7 6 13 13 13 15 0 2 -6 4 -13 4 -8 0
-14 -7 -14 -15z"/>
<path d="M323 4693 c-32 -4 -33 -6 -32 -51 1 -81 24 -352 29 -354 8 -1 303 13
330 17 14 2 79 6 145 10 66 3 139 8 163 12 l42 5 0 80 0 79 -138 -7 -139 -7
-6 98 c-3 53 -7 98 -9 99 -2 1 -33 0 -69 -2 l-66 -4 1 -101 1 -102 -67 -3 -66
-3 -7 108 c-3 59 -8 114 -10 121 -4 12 -34 13 -102 5z"/>
<path d="M2168 4382 c-9 -2 -20 -12 -23 -23 -4 -11 -10 -17 -15 -14 -5 3 -11
-4 -15 -15 -3 -11 -10 -20 -14 -20 -14 0 -13 -233 1 -260 18 -35 77 -62 116
-54 18 4 32 13 32 21 0 8 5 11 10 8 6 -3 10 -2 10 4 0 21 -17 19 -43 -5 -15
-14 -27 -20 -27 -14 0 5 -8 10 -18 10 -11 0 -28 8 -39 18 -18 15 -19 29 -18
151 2 123 4 136 23 152 12 9 19 18 17 21 -2 2 7 3 20 3 30 -2 75 -31 75 -50 0
-8 4 -15 8 -15 9 0 7 -126 -3 -207 -5 -43 10 -67 26 -42 12 19 11 32 -1 24
-14 -9 -12 9 2 23 13 13 21 155 8 147 -4 -3 -11 2 -14 11 -9 23 -7 31 4 14 5
-8 12 -11 17 -7 4 5 3 11 -3 15 -5 4 -11 18 -11 31 -1 14 -12 34 -24 45 -19
18 -21 19 -16 3 4 -11 3 -16 -3 -12 -6 3 -10 14 -10 23 0 14 -2 15 -10 2 -8
-13 -10 -12 -15 1 -6 16 -16 18 -47 11z m116 -68 c3 -8 2 -12 -4 -9 -6 3 -10
10 -10 16 0 14 7 11 14 -7z m-167 -67 c1 -29 1 -30 -8 -9 -5 13 -7 28 -3 33 8
14 9 12 11 -24z m170 -139 c-3 -7 -5 -2 -5 12 0 14 2 19 5 13 2 -7 2 -19 0
-25z"/>
<path d="M7270 4375 c0 -8 5 -15 10 -15 6 0 10 7 10 15 0 8 -4 15 -10 15 -5 0
-10 -7 -10 -15z"/>
<path d="M7723 4375 c-49 -21 -85 -113 -50 -129 10 -5 10 -7 0 -12 -8 -3 -13
-25 -13 -55 0 -28 4 -48 9 -45 5 3 12 -1 15 -10 3 -8 2 -12 -3 -9 -14 8 -24
-13 -17 -38 9 -34 56 -79 77 -74 10 3 19 1 21 -5 5 -14 58 9 58 26 0 7 7 13
16 12 17 -1 25 19 28 66 0 14 5 24 10 21 4 -3 6 37 3 89 -3 68 -10 103 -22
122 -23 35 -53 52 -68 37 -9 -9 -6 -13 11 -18 12 -3 25 -16 28 -30 4 -15 12
-22 20 -19 8 3 14 -1 14 -10 0 -8 -4 -13 -8 -10 -4 2 -9 -41 -10 -97 -3 -133
-2 -126 -27 -151 -37 -37 -115 -13 -115 36 0 11 -4 16 -11 12 -8 -5 -8 -1 0
14 6 11 11 65 11 120 0 69 5 109 15 128 8 16 15 24 15 17 0 -6 9 -9 20 -6 11
3 18 9 15 13 -3 5 1 11 7 13 9 4 8 6 -2 6 -8 0 -29 -6 -47 -14z m121 -41 c3
-8 2 -12 -4 -9 -6 3 -10 10 -10 16 0 14 7 11 14 -7z"/>
<path d="M1437 4366 c-9 -7 -17 -20 -17 -29 0 -9 -7 -20 -16 -25 -14 -8 -16
-27 -12 -135 3 -106 7 -129 23 -147 14 -15 20 -17 27 -8 5 9 8 8 8 -6 0 -13 5
-17 20 -13 11 3 18 1 14 -4 -3 -5 2 -9 10 -9 9 0 16 5 16 11 0 5 5 7 12 3 7
-4 8 -3 4 4 -4 7 -20 12 -35 12 -53 0 -63 26 -64 157 0 137 7 181 30 179 9 0
17 5 19 12 1 8 0 8 -3 1 -4 -7 -8 -8 -12 -1 -4 7 -12 6 -24 -2z m-23 -262 c3
-8 2 -12 -4 -9 -6 3 -10 10 -10 16 0 14 7 11 14 -7z m16 -67 c0 -5 -4 -5 -10
-2 -5 3 -10 14 -10 23 0 15 2 15 10 2 5 -8 10 -19 10 -23z"/>
<path d="M1520 4373 c0 -4 9 -17 21 -29 11 -12 24 -37 29 -56 4 -18 11 -42 16
-52 5 -14 4 -17 -5 -11 -10 6 -12 -7 -9 -56 3 -46 -1 -78 -14 -113 -11 -27
-17 -51 -14 -53 2 -2 7 5 11 16 3 12 10 19 15 16 11 -7 32 30 29 53 -1 9 1 25
5 34 4 9 5 48 2 85 -3 37 -6 76 -7 86 0 9 -5 17 -10 17 -6 0 -9 5 -7 12 3 7
-7 23 -20 35 -25 23 -42 29 -42 16z m71 -246 c-10 -9 -11 -8 -5 6 3 10 9 15
12 12 3 -3 0 -11 -7 -18z"/>
<path d="M7223 4372 c-8 -5 -9 -13 -3 -22 8 -12 10 -11 11 5 0 11 3 14 6 7 5
-13 23 -7 23 9 0 11 -20 12 -37 1z"/>
<path d="M7310 4360 c6 -11 15 -18 20 -15 4 3 10 -1 13 -7 2 -7 7 -10 11 -7 8
7 -32 49 -46 49 -5 0 -4 -9 2 -20z"/>
<path d="M1760 4355 c0 -17 -2 -17 -10 -5 -6 10 -10 -47 -10 -170 0 -123 4
-180 10 -170 9 13 10 13 11 0 0 -10 3 -8 9 5 12 28 12 327 0 345 -8 12 -10 12
-10 -5z m5 -80 c1 -26 -2 -41 -6 -33 -8 14 -8 91 -1 83 3 -2 6 -25 7 -50z"/>
<path d="M1967 4364 c-9 -9 4 -35 14 -28 5 3 9 12 9 20 0 14 -12 19 -23 8z"/>
<path d="M6823 4358 c-4 -7 -15 -13 -23 -13 -8 0 -16 -9 -18 -20 -2 -16 -1
-17 7 -5 19 27 23 1 22 -134 -1 -81 3 -137 9 -141 5 -3 10 -11 10 -16 0 -6 -5
-7 -11 -3 -7 4 -10 1 -7 -7 3 -8 11 -15 20 -17 12 -2 15 24 17 183 2 177 -3
209 -26 173z"/>
<path d="M7046 4354 c-3 -8 -10 -13 -14 -10 -5 3 -24 -4 -43 -16 -19 -12 -29
-23 -22 -25 6 -2 23 3 37 13 l26 16 0 -166 c0 -115 3 -166 11 -166 6 0 9 7 6
15 -4 8 -2 17 3 20 5 3 11 -5 13 -17 2 -13 5 59 6 159 1 164 -6 221 -23 177z
m5 -27 c-10 -9 -11 -8 -5 6 3 10 9 15 12 12 3 -3 0 -11 -7 -18z m5 -47 c0 -12
-4 -16 -9 -11 -5 5 -6 14 -3 20 10 15 12 14 12 -9z"/>
<path d="M7526 4354 c-4 -9 -9 -14 -13 -11 -9 9 -64 -23 -58 -33 4 -6 16 -3
31 6 l24 16 0 -166 c0 -115 3 -166 11 -166 6 0 9 7 6 15 -4 8 -2 17 3 20 5 3
11 -5 13 -17 2 -13 5 59 6 159 1 165 -6 221 -23 177z m5 -27 c-10 -9 -11 -8
-5 6 3 10 9 15 12 12 3 -3 0 -11 -7 -18z m5 -47 c0 -12 -4 -16 -9 -11 -5 5 -6
14 -3 20 10 15 12 14 12 -9z"/>
<path d="M8020 4361 c0 -6 5 -13 10 -16 6 -3 10 1 10 9 0 9 -4 16 -10 16 -5 0
-10 -4 -10 -9z"/>
<path d="M2415 4336 c-13 -13 -26 -21 -29 -18 -3 3 -6 0 -6 -6 0 -16 12 -15
36 3 10 8 21 15 24 15 3 0 4 -65 3 -145 -2 -93 1 -144 7 -140 6 3 10 -5 10
-19 0 -14 4 -26 9 -26 14 0 14 329 0 346 -16 20 -26 18 -54 -10z"/>
<path d="M2660 4352 c0 -5 -8 -9 -17 -8 -10 0 -19 -7 -21 -19 -2 -16 -1 -17 7
-5 19 27 23 1 22 -134 -1 -81 3 -137 9 -141 5 -3 10 -11 10 -16 0 -6 -5 -7
-11 -3 -7 4 -10 1 -7 -7 3 -8 11 -15 20 -17 23 -4 27 328 4 347 -9 8 -16 9
-16 3z"/>
<path d="M6575 4336 c-13 -13 -26 -21 -29 -18 -3 3 -6 0 -6 -6 0 -16 12 -15
36 3 10 8 21 15 24 15 3 0 4 -65 3 -145 -2 -93 1 -144 7 -140 6 3 10 -5 10
-19 0 -14 4 -26 9 -26 14 0 14 329 0 346 -16 20 -26 18 -54 -10z"/>
<path d="M7968 4336 c-21 -11 -38 -28 -38 -36 1 -12 4 -11 15 4 7 10 18 15 24
11 6 -3 11 1 11 9 0 22 20 20 21 -1 0 -10 0 -87 0 -170 0 -143 1 -153 19 -153
17 0 18 11 19 153 1 129 -1 156 -16 178 l-18 27 -37 -22z"/>
<path d="M1698 4332 c-40 -24 -38 -48 2 -27 17 9 30 22 30 30 0 8 -1 15 -2 14
-2 0 -15 -8 -30 -17z"/>
<path d="M1940 4340 c0 -5 -5 -9 -11 -7 -6 1 -14 -5 -16 -13 -4 -12 -3 -12 5
-2 5 8 12 13 16 13 18 -3 26 0 26 9 0 6 -4 10 -10 10 -5 0 -10 -4 -10 -10z"/>
<path d="M7182 4318 c-13 -50 -14 -155 -2 -179 10 -17 9 -20 -1 -14 -9 6 -10
-2 -5 -36 7 -44 30 -78 57 -83 8 -2 22 -7 33 -11 11 -5 21 -3 26 5 4 7 13 9
20 5 9 -6 11 -4 5 5 -5 8 -3 11 6 8 18 -6 38 13 32 30 -3 7 0 12 8 10 16 -4
26 38 28 116 1 48 -2 57 -14 52 -10 -4 -15 1 -15 15 0 11 4 18 9 15 5 -4 11
-1 13 6 6 17 -3 58 -12 58 -12 0 -20 -56 -20 -139 0 -89 -9 -153 -21 -146 -4
3 -10 1 -14 -5 -10 -16 -72 -12 -89 6 -16 16 -21 57 -16 148 2 41 -1 48 -13
43 -11 -4 -14 -1 -10 8 3 8 8 13 13 10 4 -2 8 20 9 50 2 61 -13 73 -27 23z
m13 -38 c3 -5 1 -10 -4 -10 -6 0 -11 5 -11 10 0 6 2 10 4 10 3 0 8 -4 11 -10z
m172 -182 c-3 -8 -6 -5 -6 6 -1 11 2 17 5 13 3 -3 4 -12 1 -19z"/>
<path d="M1880 4304 c0 -8 5 -12 10 -9 6 3 10 10 10 16 0 5 -4 9 -10 9 -5 0
-10 -7 -10 -16z"/>
<path d="M1951 4158 c1 -143 3 -158 19 -158 16 0 18 15 19 158 2 154 1 158
-19 158 -21 0 -21 -4 -19 -158z m22 -113 c-3 -9 -8 -14 -10 -11 -3 3 -2 9 2
15 9 16 15 13 8 -4z"/>
<path d="M2583 4305 c0 -11 4 -12 14 -4 7 6 13 13 13 15 0 2 -6 4 -13 4 -8 0
-14 -7 -14 -15z"/>
<path d="M6743 4305 c0 -11 4 -12 14 -4 7 6 13 13 13 15 0 2 -6 4 -13 4 -8 0
-14 -7 -14 -15z"/>
<path d="M2793 4139 c0 -69 19 -119 31 -81 11 34 3 99 -14 122 -16 22 -17 20
-17 -41z"/>
<path d="M2831 4045 c0 -33 45 -57 89 -49 43 9 27 24 -25 24 -31 0 -47 5 -54
18 -6 9 -10 13 -10 7z"/>
<path d="M1688 3902 c-9 -2 -20 -12 -23 -23 -4 -11 -10 -17 -15 -14 -5 3 -11
-4 -15 -15 -3 -11 -10 -20 -14 -20 -14 0 -13 -233 1 -260 18 -35 77 -62 116
-54 18 4 32 13 32 21 0 8 5 11 10 8 6 -3 10 -2 10 4 0 21 -17 19 -43 -5 -15
-14 -27 -20 -27 -14 0 5 -8 10 -18 10 -11 0 -28 8 -39 18 -18 15 -19 29 -18
151 2 123 4 136 23 152 12 9 19 18 17 21 -2 2 7 3 20 3 30 -2 75 -31 75 -50 0
-8 4 -15 8 -15 9 0 7 -126 -3 -207 -5 -43 10 -67 26 -42 12 19 11 32 -1 24
-14 -9 -12 9 2 23 13 13 21 155 8 147 -4 -3 -11 2 -14 11 -9 23 -7 31 4 14 5
-8 12 -11 17 -7 4 5 3 11 -3 15 -5 4 -11 18 -11 31 -1 14 -12 34 -24 45 -19
18 -21 19 -16 3 4 -11 3 -16 -3 -12 -6 3 -10 14 -10 23 0 14 -2 15 -10 2 -8
-13 -10 -12 -15 1 -6 16 -16 18 -47 11z m116 -68 c3 -8 2 -12 -4 -9 -6 3 -10
10 -10 16 0 14 7 11 14 -7z m-167 -67 c1 -29 1 -30 -8 -9 -5 13 -7 28 -3 33 8
14 9 12 11 -24z m170 -139 c-3 -7 -5 -2 -5 12 0 14 2 19 5 13 2 -7 2 -19 0
-25z"/>
<path d="M1955 3894 c-8 -9 -19 -13 -24 -9 -5 3 -17 -5 -25 -17 -17 -24 -21
-42 -8 -34 4 2 8 -4 8 -14 0 -12 -4 -16 -11 -10 -16 13 -18 -209 -2 -239 6
-13 15 -22 19 -20 4 2 14 -5 22 -16 13 -17 15 -18 16 -3 0 9 -8 23 -18 30 -12
9 -17 24 -16 48 2 19 3 81 3 137 1 79 4 105 16 115 9 7 21 18 28 24 9 8 18 7
34 -3 18 -12 23 -13 23 -2 0 22 17 -3 31 -46 8 -25 11 -75 9 -135 -2 -52 -4
-107 -4 -121 -1 -16 -6 -25 -12 -22 -7 2 -15 0 -19 -6 -3 -6 -17 -11 -31 -11
-15 0 -24 -6 -24 -16 0 -12 7 -14 31 -9 35 8 69 33 69 51 0 7 5 14 11 16 13 4
24 161 15 212 -4 20 -11 34 -15 31 -10 -6 -25 24 -22 42 4 28 -81 50 -104 27z
m126 -117 c-10 -9 -11 -8 -5 6 3 10 9 15 12 12 3 -3 0 -11 -7 -18z m-180 -24
c-12 -20 -14 -14 -5 12 4 9 9 14 11 11 3 -2 0 -13 -6 -23z m1 -105 c-7 -7 -12
-8 -12 -2 0 14 12 26 19 19 2 -3 -1 -11 -7 -17z m5 -40 c-3 -8 -6 -5 -6 6 -1
11 2 17 5 13 3 -3 4 -12 1 -19z"/>
<path d="M2241 3902 c-1 -15 47 -35 66 -28 8 3 11 1 8 -4 -3 -5 0 -22 8 -37 9
-20 12 -63 11 -148 -3 -150 -3 -142 -13 -127 -6 10 -10 10 -21 -3 -18 -21 -86
-20 -99 3 -6 9 -10 13 -10 7 0 -28 31 -50 70 -49 49 2 87 34 98 85 12 54 13
174 1 218 -12 47 -54 84 -87 78 -12 -2 -24 1 -27 7 -3 7 -5 6 -5 -2z m107 -77
c-3 -3 -9 2 -12 12 -6 14 -5 15 5 6 7 -7 10 -15 7 -18z"/>
<path d="M7458 3902 c-20 -4 -24 -17 -9 -27 6 -3 14 3 20 12 6 10 11 12 11 6
0 -17 20 -17 20 0 0 14 -11 16 -42 9z"/>
<path d="M7723 3895 c-49 -21 -85 -113 -50 -129 10 -5 10 -7 0 -12 -8 -3 -13
-25 -13 -55 0 -28 4 -48 9 -45 5 3 12 -1 15 -10 3 -8 2 -12 -3 -9 -14 8 -24
-13 -17 -38 9 -34 56 -79 77 -74 10 3 19 1 21 -5 5 -14 58 9 58 26 0 7 7 13
16 12 17 -1 25 19 28 66 0 14 5 24 10 21 4 -3 6 37 3 89 -3 68 -10 103 -22
122 -23 35 -53 52 -68 37 -9 -9 -6 -13 11 -18 12 -3 25 -16 28 -30 4 -15 12
-22 20 -19 8 3 14 -1 14 -10 0 -8 -4 -13 -8 -10 -4 2 -9 -41 -10 -97 -3 -133
-2 -126 -27 -151 -37 -37 -115 -13 -115 36 0 11 -4 16 -11 12 -8 -5 -8 -1 0
14 6 11 11 65 11 120 0 69 5 109 15 128 8 16 15 24 15 17 0 -6 9 -9 20 -6 11
3 18 9 15 13 -3 5 1 11 7 13 9 4 8 6 -2 6 -8 0 -29 -6 -47 -14z m121 -41 c3
-8 2 -12 -4 -9 -6 3 -10 10 -10 16 0 14 7 11 14 -7z"/>
<path d="M2192 3881 c-12 -10 -22 -26 -22 -35 0 -9 -5 -16 -10 -16 -16 0 -11
-230 5 -253 11 -16 13 -16 19 -1 3 9 6 72 5 141 -1 114 0 126 20 147 35 38 22
51 -17 17z"/>
<path d="M7516 3888 c4 -7 16 -24 25 -38 22 -31 29 -205 10 -261 -10 -33 -40
-57 -66 -54 -24 2 -55 17 -55 26 0 6 -5 7 -11 3 -8 -4 -9 0 -4 15 7 24 -10 29
-19 6 -11 -29 76 -90 88 -62 3 8 5 8 5 1 1 -17 51 -4 51 13 0 8 4 12 10 8 16
-10 43 42 36 71 -4 14 -3 23 2 20 5 -3 9 31 9 75 0 43 -4 82 -9 85 -5 3 -6 14
-3 24 4 12 -4 29 -24 49 -30 31 -59 43 -45 19z m61 -240 c-3 -8 -6 -5 -6 6 -1
11 2 17 5 13 3 -3 4 -12 1 -19z"/>
<path d="M2726 3874 c-3 -8 -10 -13 -14 -10 -5 3 -24 -4 -43 -16 -19 -12 -29
-23 -22 -25 6 -2 23 3 37 13 l26 16 0 -166 c0 -115 3 -166 11 -166 6 0 9 7 6
15 -4 8 -2 17 3 20 5 3 11 -5 13 -17 2 -13 5 59 6 159 1 164 -6 221 -23 177z
m5 -27 c-10 -9 -11 -8 -5 6 3 10 9 15 12 12 3 -3 0 -11 -7 -18z m5 -47 c0 -12
-4 -16 -9 -11 -5 5 -6 14 -3 20 10 15 12 14 12 -9z"/>
<path d="M6823 3878 c-4 -7 -15 -13 -23 -13 -8 0 -16 -9 -18 -20 -2 -16 -1
-17 7 -5 19 27 23 1 22 -134 -1 -81 3 -137 9 -141 5 -3 10 -11 10 -16 0 -6 -5
-7 -11 -3 -7 4 -10 1 -7 -7 3 -8 11 -15 20 -17 12 -2 15 24 17 183 2 177 -3
209 -26 173z"/>
<path d="M7046 3874 c-3 -8 -10 -13 -14 -10 -5 3 -24 -4 -43 -16 -19 -12 -29
-23 -22 -25 6 -2 23 3 37 13 l26 16 0 -166 c0 -115 3 -166 11 -166 6 0 9 7 6
15 -4 8 -2 17 3 20 5 3 11 -5 13 -17 2 -13 5 59 6 159 1 164 -6 221 -23 177z
m5 -27 c-10 -9 -11 -8 -5 6 3 10 9 15 12 12 3 -3 0 -11 -7 -18z m5 -47 c0 -12
-4 -16 -9 -11 -5 5 -6 14 -3 20 10 15 12 14 12 -9z"/>
<path d="M7400 3856 c-18 -30 -21 -48 -19 -138 1 -57 3 -106 6 -110 2 -4 10
-5 18 -1 11 4 15 23 15 79 0 43 -4 74 -10 74 -5 0 -10 -5 -10 -12 0 -6 -3 -9
-6 -6 -3 4 2 20 10 37 9 16 16 38 15 48 -1 12 -3 10 -8 -7 -6 -20 -8 -22 -13
-8 -7 17 24 62 36 51 3 -3 6 -1 6 5 0 26 -20 20 -40 -12z"/>
<path d="M8020 3881 c0 -6 5 -13 10 -16 6 -3 10 1 10 9 0 9 -4 16 -10 16 -5 0
-10 -4 -10 -9z"/>
<path d="M2490 3860 c-5 -8 -12 -14 -17 -13 -17 5 -43 -9 -43 -24 0 -12 6 -11
35 6 l35 20 0 -147 c1 -106 4 -152 14 -164 7 -10 16 -18 19 -18 2 0 5 80 6
178 2 174 1 178 -19 178 -12 0 -25 -7 -30 -16z m28 -26 c-3 -14 -5 -12 -10 9
-3 19 -2 25 4 19 6 -6 8 -18 6 -28z m5 -259 c-3 -9 -8 -14 -10 -11 -3 3 -2 9
2 15 9 16 15 13 8 -4z"/>
<path d="M2895 3856 c-13 -13 -26 -21 -29 -18 -3 3 -6 0 -6 -6 0 -16 12 -15
36 3 10 8 21 15 24 15 3 0 4 -65 3 -145 -2 -93 1 -144 7 -140 6 3 10 -5 10
-19 0 -14 4 -26 9 -26 14 0 14 329 0 346 -16 20 -26 18 -54 -10z"/>
<path d="M3130 3860 c-5 -8 -12 -14 -17 -13 -17 5 -43 -9 -43 -24 0 -12 6 -11
35 6 l35 20 0 -147 c1 -106 4 -152 14 -164 7 -10 16 -18 19 -18 2 0 5 80 6
178 2 174 1 178 -19 178 -12 0 -25 -7 -30 -16z m28 -26 c-3 -14 -5 -12 -10 9
-3 19 -2 25 4 19 6 -6 8 -18 6 -28z m5 -259 c-3 -9 -8 -14 -10 -11 -3 3 -2 9
2 15 9 16 15 13 8 -4z"/>
<path d="M6575 3856 c-13 -13 -26 -21 -29 -18 -3 3 -6 0 -6 -6 0 -16 12 -15
36 3 10 8 21 15 24 15 3 0 4 -65 3 -145 -2 -93 1 -144 7 -140 6 3 10 -5 10
-19 0 -14 4 -26 9 -26 14 0 14 329 0 346 -16 20 -26 18 -54 -10z"/>
<path d="M7215 3856 c-13 -13 -26 -21 -29 -18 -3 3 -6 0 -6 -6 0 -16 12 -15
36 3 10 8 21 15 24 15 3 0 4 -65 3 -145 -2 -93 1 -144 7 -140 6 3 10 -5 10
-19 0 -14 4 -26 9 -26 14 0 14 329 0 346 -16 20 -26 18 -54 -10z"/>
<path d="M2065 3850 c3 -5 8 -10 11 -10 2 0 4 5 4 10 0 6 -5 10 -11 10 -5 0
-7 -4 -4 -10z"/>
<path d="M6743 3825 c0 -11 4 -12 14 -4 7 6 13 13 13 15 0 2 -6 4 -13 4 -8 0
-14 -7 -14 -15z"/>
<path d="M1955 3414 c-8 -9 -19 -13 -24 -9 -5 3 -17 -5 -25 -17 -17 -24 -21
-42 -8 -34 4 2 8 -4 8 -14 0 -12 -4 -16 -11 -10 -16 13 -18 -209 -2 -239 6
-13 15 -22 19 -20 4 2 14 -5 22 -16 13 -17 15 -18 16 -3 0 9 -8 23 -18 30 -12
9 -17 24 -16 48 2 19 3 81 3 137 1 79 4 105 16 115 9 7 21 18 28 24 9 8 18 7
34 -3 18 -12 23 -13 23 -2 0 22 17 -3 31 -46 8 -25 11 -75 9 -135 -2 -52 -4
-107 -4 -121 -1 -16 -6 -25 -12 -22 -7 2 -15 0 -19 -6 -3 -6 -17 -11 -31 -11
-15 0 -24 -6 -24 -16 0 -12 7 -14 31 -9 35 8 69 33 69 51 0 7 5 14 11 16 13 4
24 161 15 212 -4 20 -11 34 -15 31 -10 -6 -25 24 -22 42 4 28 -81 50 -104 27z
m126 -117 c-10 -9 -11 -8 -5 6 3 10 9 15 12 12 3 -3 0 -11 -7 -18z m-180 -24
c-12 -20 -14 -14 -5 12 4 9 9 14 11 11 3 -2 0 -13 -6 -23z m1 -105 c-7 -7 -12
-8 -12 -2 0 14 12 26 19 19 2 -3 -1 -11 -7 -17z m5 -40 c-3 -8 -6 -5 -6 6 -1
11 2 17 5 13 3 -3 4 -12 1 -19z"/>
<path d="M2241 3422 c-1 -15 47 -35 66 -28 8 3 11 1 8 -4 -3 -5 0 -22 8 -37 9
-20 12 -63 11 -148 -3 -150 -3 -142 -13 -127 -6 10 -10 10 -21 -3 -18 -21 -86
-20 -99 3 -6 9 -10 13 -10 7 0 -28 31 -50 70 -49 49 2 87 34 98 85 12 54 13
174 1 218 -12 47 -54 84 -87 78 -12 -2 -24 1 -27 7 -3 7 -5 6 -5 -2z m107 -77
c-3 -3 -9 2 -12 12 -6 14 -5 15 5 6 7 -7 10 -15 7 -18z"/>
<path d="M7075 3414 c-8 -9 -19 -13 -24 -9 -5 3 -17 -5 -25 -17 -17 -24 -21
-42 -8 -34 4 2 8 -4 8 -14 0 -12 -4 -16 -11 -10 -16 13 -18 -209 -2 -239 6
-13 15 -22 19 -20 4 2 14 -5 22 -16 13 -17 15 -18 16 -3 0 9 -8 23 -18 30 -12
9 -17 24 -16 48 2 19 3 81 3 137 1 79 4 105 16 115 9 7 21 18 28 24 9 8 18 7
34 -3 18 -12 23 -13 23 -2 0 22 17 -3 31 -46 8 -25 11 -75 9 -135 -2 -52 -4
-107 -4 -121 -1 -16 -6 -25 -12 -22 -7 2 -15 0 -19 -6 -3 -6 -17 -11 -31 -11
-15 0 -24 -6 -24 -16 0 -12 7 -14 31 -9 35 8 69 33 69 51 0 7 5 14 11 16 13 4
24 161 15 212 -4 20 -11 34 -15 31 -10 -6 -25 24 -22 42 4 28 -81 50 -104 27z
m126 -117 c-10 -9 -11 -8 -5 6 3 10 9 15 12 12 3 -3 0 -11 -7 -18z m-180 -24
c-12 -20 -14 -14 -5 12 4 9 9 14 11 11 3 -2 0 -13 -6 -23z m1 -105 c-7 -7 -12
-8 -12 -2 0 14 12 26 19 19 2 -3 -1 -11 -7 -17z m5 -40 c-3 -8 -6 -5 -6 6 -1
11 2 17 5 13 3 -3 4 -12 1 -19z"/>
<path d="M7361 3422 c-1 -15 47 -35 66 -28 8 3 11 1 8 -4 -3 -5 0 -22 8 -37 9
-20 12 -63 11 -148 -3 -150 -3 -142 -13 -127 -6 10 -10 10 -21 -3 -18 -21 -86
-20 -99 3 -6 9 -10 13 -10 7 0 -28 31 -50 70 -49 49 2 87 34 98 85 12 54 13
174 1 218 -12 47 -54 84 -87 78 -12 -2 -24 1 -27 7 -3 7 -5 6 -5 -2z m107 -77
c-3 -3 -9 2 -12 12 -6 14 -5 15 5 6 7 -7 10 -15 7 -18z"/>
<path d="M7870 3418 c0 -6 -7 -8 -15 -4 -8 3 -15 1 -15 -4 0 -10 59 -10 65 0
3 4 -4 10 -15 13 -11 3 -20 1 -20 -5z"/>
<path d="M2192 3401 c-12 -10 -22 -26 -22 -35 0 -9 -5 -16 -10 -16 -16 0 -11
-230 5 -253 11 -16 13 -16 19 -1 3 9 6 72 5 141 -1 114 0 126 20 147 35 38 22
51 -17 17z"/>
<path d="M2477 3406 c-9 -7 -17 -20 -17 -29 0 -9 -7 -20 -16 -25 -14 -8 -16
-27 -12 -135 3 -106 7 -129 23 -147 14 -15 20 -17 27 -8 5 9 8 8 8 -6 0 -13 5
-17 20 -13 11 3 18 1 14 -4 -3 -5 2 -9 10 -9 9 0 16 5 16 11 0 5 5 7 12 3 7
-4 8 -3 4 4 -4 7 -20 12 -35 12 -53 0 -63 26 -64 157 0 137 7 181 30 179 9 0
17 5 19 12 1 8 0 8 -3 1 -4 -7 -8 -8 -12 -1 -4 7 -12 6 -24 -2z m-23 -262 c3
-8 2 -12 -4 -9 -6 3 -10 10 -10 16 0 14 7 11 14 -7z m16 -67 c0 -5 -4 -5 -10
-2 -5 3 -10 14 -10 23 0 15 2 15 10 2 5 -8 10 -19 10 -23z"/>
<path d="M2560 3413 c0 -4 9 -17 21 -29 11 -12 24 -37 29 -56 4 -18 11 -42 16
-52 5 -14 4 -17 -5 -11 -10 6 -12 -7 -9 -56 3 -46 -1 -78 -14 -113 -11 -27
-17 -51 -14 -53 2 -2 7 5 11 16 3 12 10 19 15 16 11 -7 32 30 29 53 -1 9 1 25
5 34 4 9 5 48 2 85 -3 37 -6 76 -7 86 0 9 -5 17 -10 17 -6 0 -9 5 -7 12 3 7
-7 23 -20 35 -25 23 -42 29 -42 16z m71 -246 c-10 -9 -11 -8 -5 6 3 10 9 15
12 12 3 -3 0 -11 -7 -18z"/>
<path d="M2957 3406 c-9 -7 -17 -20 -17 -29 0 -9 -7 -20 -16 -25 -14 -8 -16
-27 -12 -135 3 -106 7 -129 23 -147 14 -15 20 -17 27 -8 5 9 8 8 8 -6 0 -13 5
-17 20 -13 11 3 18 1 14 -4 -3 -5 2 -9 10 -9 9 0 16 5 16 11 0 5 5 7 12 3 7
-4 8 -3 4 4 -4 7 -20 12 -35 12 -53 0 -63 26 -64 157 0 137 7 181 30 179 9 0
17 5 19 12 1 8 0 8 -3 1 -4 -7 -8 -8 -12 -1 -4 7 -12 6 -24 -2z m-23 -262 c3
-8 2 -12 -4 -9 -6 3 -10 10 -10 16 0 14 7 11 14 -7z m16 -67 c0 -5 -4 -5 -10
-2 -5 3 -10 14 -10 23 0 15 2 15 10 2 5 -8 10 -19 10 -23z"/>
<path d="M3040 3413 c0 -4 9 -17 21 -29 11 -12 24 -37 29 -56 4 -18 11 -42 16
-52 5 -14 4 -17 -5 -11 -10 6 -12 -7 -9 -56 3 -46 -1 -78 -14 -113 -11 -27
-17 -51 -14 -53 2 -2 7 5 11 16 3 12 10 19 15 16 11 -7 32 30 29 53 -1 9 1 25
5 34 4 9 5 48 2 85 -3 37 -6 76 -7 86 0 9 -5 17 -10 17 -6 0 -9 5 -7 12 3 7
-7 23 -20 35 -25 23 -42 29 -42 16z m71 -246 c-10 -9 -11 -8 -5 6 3 10 9 15
12 12 3 -3 0 -11 -7 -18z"/>
<path d="M7312 3401 c-12 -10 -22 -26 -22 -35 0 -9 -5 -16 -10 -16 -16 0 -11
-230 5 -253 11 -16 13 -16 19 -1 3 9 6 72 5 141 -1 114 0 126 20 147 35 38 22
51 -17 17z"/>
<path d="M1760 3395 c0 -17 -2 -17 -10 -5 -11 17 -15 -307 -4 -334 3 -9 12
-16 20 -16 11 0 14 32 14 173 0 94 -5 179 -10 187 -8 12 -10 12 -10 -5z m5
-80 c1 -26 -2 -41 -6 -33 -8 14 -8 91 -1 83 3 -2 6 -25 7 -50z"/>
<path d="M2783 3400 c-13 -5 -23 -14 -23 -20 0 -14 17 -13 22 2 3 7 7 5 11 -6
4 -10 3 -15 -3 -11 -6 3 -10 3 -11 -2 0 -4 -2 -21 -4 -38 -3 -18 -1 -25 4 -17
7 11 9 11 14 -1 3 -9 -1 -18 -9 -21 -11 -4 -14 -27 -14 -101 0 -67 3 -94 11
-89 7 4 7 -1 -1 -16 -9 -16 -9 -25 -1 -33 24 -24 31 20 29 191 -1 94 -2 172
-3 171 0 0 -10 -4 -22 -9z"/>
<path d="M6660 3401 c0 -6 5 -13 10 -16 6 -3 10 1 10 9 0 9 -4 16 -10 16 -5 0
-10 -4 -10 -9z"/>
<path d="M6880 3395 c0 -17 -2 -17 -10 -5 -6 10 -10 -47 -10 -170 0 -123 4
-180 10 -170 9 13 10 13 11 0 0 -10 3 -8 9 5 12 28 12 327 0 345 -8 12 -10 12
-10 -5z m5 -80 c1 -26 -2 -41 -6 -33 -8 14 -8 91 -1 83 3 -2 6 -25 7 -50z"/>
<path d="M6608 3376 c-21 -11 -38 -28 -38 -36 1 -12 4 -11 15 4 7 10 18 15 24
11 6 -3 11 1 11 9 0 22 20 20 21 -1 0 -10 0 -87 0 -170 0 -143 1 -153 19 -153
17 0 18 11 19 153 1 129 -1 156 -16 178 l-18 27 -37 -22z"/>
<path d="M7610 3380 c-5 -8 -12 -14 -17 -13 -17 5 -43 -9 -43 -24 0 -12 6 -11
35 6 l35 20 0 -147 c1 -106 4 -152 14 -164 7 -10 16 -18 19 -18 2 0 5 80 6
178 2 174 1 178 -19 178 -12 0 -25 -7 -30 -16z m28 -26 c-3 -14 -5 -12 -10 9
-3 19 -2 25 4 19 6 -6 8 -18 6 -28z m5 -259 c-3 -9 -8 -14 -10 -11 -3 3 -2 9
2 15 9 16 15 13 8 -4z"/>
<path d="M1698 3372 c-40 -24 -38 -48 2 -27 17 9 30 22 30 30 0 8 -1 15 -2 14
-2 0 -15 -8 -30 -17z"/>
<path d="M6818 3372 c-40 -24 -38 -48 2 -27 17 9 30 22 30 30 0 8 -1 15 -2 14
-2 0 -15 -8 -30 -17z"/>
<path d="M2065 3370 c3 -5 8 -10 11 -10 2 0 4 5 4 10 0 6 -5 10 -11 10 -5 0
-7 -4 -4 -10z"/>
<path d="M2726 3367 c-11 -8 -15 -17 -10 -20 14 -8 37 8 33 22 -3 8 -10 8 -23
-2z"/>
<path d="M7185 3370 c3 -5 8 -10 11 -10 2 0 4 5 4 10 0 6 -5 10 -11 10 -5 0
-7 -4 -4 -10z"/>
<path d="M2241 2942 c-1 -15 47 -35 66 -28 8 3 11 1 8 -4 -3 -5 0 -22 8 -37 9
-20 12 -63 11 -148 -3 -150 -3 -142 -13 -127 -6 10 -10 10 -21 -3 -18 -21 -86
-20 -99 3 -6 9 -10 13 -10 7 0 -28 31 -50 70 -49 49 2 87 34 98 85 12 54 13
174 1 218 -12 47 -54 84 -87 78 -12 -2 -24 1 -27 7 -3 7 -5 6 -5 -2z m107 -77
c-3 -3 -9 2 -12 12 -6 14 -5 15 5 6 7 -7 10 -15 7 -18z"/>
<path d="M2950 2935 c0 -8 5 -15 10 -15 6 0 10 7 10 15 0 8 -4 15 -10 15 -5 0
-10 -7 -10 -15z"/>
<path d="M7550 2938 c0 -6 -7 -8 -15 -4 -8 3 -15 1 -15 -4 0 -10 59 -10 65 0
3 4 -4 10 -15 13 -11 3 -20 1 -20 -5z"/>
<path d="M2192 2921 c-12 -10 -22 -26 -22 -35 0 -9 -5 -16 -10 -16 -16 0 -11
-230 5 -253 11 -16 13 -16 19 -1 3 9 6 72 5 141 -1 114 0 126 20 147 35 38 22
51 -17 17z"/>
<path d="M2903 2932 c-8 -5 -9 -13 -3 -22 8 -12 10 -11 11 5 0 11 3 14 6 7 5
-13 23 -7 23 9 0 11 -20 12 -37 1z"/>
<path d="M2990 2920 c6 -11 15 -18 20 -15 4 3 10 -1 13 -7 2 -7 7 -10 11 -7 8
7 -32 49 -46 49 -5 0 -4 -9 2 -20z"/>
<path d="M2726 2914 c-3 -8 -10 -13 -14 -10 -5 3 -24 -4 -43 -16 -19 -12 -29
-23 -22 -25 6 -2 23 3 37 13 l26 16 0 -166 c0 -115 3 -166 11 -166 6 0 9 7 6
15 -4 8 -2 17 3 20 5 3 11 -5 13 -17 2 -13 5 59 6 159 1 164 -6 221 -23 177z
m5 -27 c-10 -9 -11 -8 -5 6 3 10 9 15 12 12 3 -3 0 -11 -7 -18z m5 -47 c0 -12
-4 -16 -9 -11 -5 5 -6 14 -3 20 10 15 12 14 12 -9z"/>
<path d="M6886 2914 c-3 -8 -10 -13 -14 -10 -5 3 -24 -4 -43 -16 -19 -12 -29
-23 -22 -25 6 -2 23 3 37 13 l26 16 0 -166 c0 -115 3 -166 11 -166 6 0 9 7 6
15 -4 8 -2 17 3 20 5 3 11 -5 13 -17 2 -13 5 59 6 159 1 164 -6 221 -23 177z
m5 -27 c-10 -9 -11 -8 -5 6 3 10 9 15 12 12 3 -3 0 -11 -7 -18z m5 -47 c0 -12
-4 -16 -9 -11 -5 5 -6 14 -3 20 10 15 12 14 12 -9z"/>
<path d="M7103 2920 c-13 -5 -23 -14 -23 -20 0 -14 17 -13 22 2 3 7 7 5 11 -6
4 -10 3 -15 -3 -11 -6 3 -10 3 -11 -2 0 -4 -2 -21 -4 -38 -3 -18 -1 -25 4 -17
7 11 9 11 14 -1 3 -9 -1 -18 -9 -21 -11 -4 -14 -27 -14 -101 0 -67 3 -94 11
-89 7 4 7 -1 -1 -16 -9 -16 -9 -25 -1 -33 24 -24 31 20 29 191 -1 94 -2 172
-3 171 0 0 -10 -4 -22 -9z"/>
<path d="M7597 2917 c-2 -6 2 -23 10 -37 7 -14 13 -37 13 -52 0 -34 16 -44 29
-20 7 13 7 31 1 52 -11 38 -46 76 -53 57z m47 -73 c3 -8 2 -12 -4 -9 -6 3 -10
10 -10 16 0 14 7 11 14 -7z"/>
<path d="M2490 2900 c-5 -8 -12 -14 -17 -13 -17 5 -43 -9 -43 -24 0 -12 6 -11
35 6 l35 20 0 -147 c1 -106 4 -152 14 -164 7 -10 16 -18 19 -18 2 0 5 80 6
178 2 174 1 178 -19 178 -12 0 -25 -7 -30 -16z m28 -26 c-3 -14 -5 -12 -10 9
-3 19 -2 25 4 19 6 -6 8 -18 6 -28z m5 -259 c-3 -9 -8 -14 -10 -11 -3 3 -2 9
2 15 9 16 15 13 8 -4z"/>
<path d="M7290 2900 c-5 -8 -12 -14 -17 -13 -17 5 -43 -9 -43 -24 0 -12 6 -11
35 6 l35 20 0 -147 c1 -106 4 -152 14 -164 7 -10 16 -18 19 -18 2 0 5 80 6
178 2 174 1 178 -19 178 -12 0 -25 -7 -30 -16z m28 -26 c-3 -14 -5 -12 -10 9
-3 19 -2 25 4 19 6 -6 8 -18 6 -28z m5 -259 c-3 -9 -8 -14 -10 -11 -3 3 -2 9
2 15 9 16 15 13 8 -4z"/>
<path d="M2065 2890 c3 -5 8 -10 11 -10 2 0 4 5 4 10 0 6 -5 10 -11 10 -5 0
-7 -4 -4 -10z"/>
<path d="M7046 2887 c-11 -8 -15 -17 -10 -20 14 -8 37 8 33 22 -3 8 -10 8 -23
-2z"/>
<path d="M2310 2455 c0 -8 5 -15 10 -15 6 0 10 7 10 15 0 8 -4 15 -10 15 -5 0
-10 -7 -10 -15z"/>
<path d="M7218 2462 c-20 -4 -24 -17 -9 -27 6 -3 14 3 20 12 6 10 11 12 11 6
0 -17 20 -17 20 0 0 14 -11 16 -42 9z"/>
<path d="M2263 2452 c-8 -5 -9 -13 -3 -22 8 -12 10 -11 11 5 0 11 3 14 6 7 5
-13 23 -7 23 9 0 11 -20 12 -37 1z"/>
<path d="M2350 2440 c6 -11 15 -18 20 -15 4 3 10 -1 13 -7 2 -7 7 -10 11 -7 8
7 -32 49 -46 49 -5 0 -4 -9 2 -20z"/>
<path d="M2580 2441 c0 -6 5 -13 10 -16 6 -3 10 1 10 9 0 9 -4 16 -10 16 -5 0
-10 -4 -10 -9z"/>
<path d="M2783 2440 c-13 -5 -23 -14 -23 -20 0 -14 17 -13 22 2 3 7 7 5 11 -6
4 -10 3 -15 -3 -11 -6 3 -10 3 -11 -2 0 -4 -2 -21 -4 -38 -3 -18 -1 -25 4 -17
7 11 9 11 14 -1 3 -9 -1 -18 -9 -21 -11 -4 -14 -27 -14 -101 0 -67 3 -94 11
-89 7 4 7 -1 -1 -16 -9 -16 -9 -25 -1 -33 24 -24 31 20 29 191 -1 94 -2 172
-3 171 0 0 -10 -4 -22 -9z"/>
<path d="M7007 2444 c-9 -9 4 -35 14 -28 5 3 9 12 9 20 0 14 -12 19 -23 8z"/>
<path d="M2528 2416 c-21 -11 -38 -28 -38 -36 1 -12 4 -11 15 4 7 10 18 15 24
11 6 -3 11 1 11 9 0 22 20 20 21 -1 0 -10 0 -87 -1 -170 -1 -146 0 -153 19
-153 18 0 19 7 20 153 1 129 -1 156 -16 178 l-18 27 -37 -22z"/>
<path d="M7668 2379 l-54 -61 19 -124 c11 -69 17 -127 14 -130 -3 -4 -61 2
-129 11 l-122 18 -63 -67 c-35 -36 -63 -70 -63 -74 0 -4 81 -18 179 -30 99
-13 192 -25 207 -28 17 -3 74 -49 153 -124 l126 -119 53 52 c28 28 52 57 52
63 0 10 -49 60 -220 224 -24 23 -29 43 -58 235 -18 115 -34 211 -36 212 -2 2
-28 -24 -58 -58z"/>
<path d="M6980 2420 c0 -5 -5 -9 -11 -7 -6 1 -14 -5 -16 -13 -4 -12 -3 -12 5
-2 5 8 12 13 16 13 18 -3 26 0 26 9 0 6 -4 10 -10 10 -5 0 -10 -4 -10 -10z"/>
<path d="M2726 2407 c-11 -8 -15 -17 -10 -20 14 -8 37 8 33 22 -3 8 -10 8 -23
-2z"/>
<path d="M6920 2384 c0 -8 5 -12 10 -9 6 3 10 10 10 16 0 5 -4 9 -10 9 -5 0
-10 -7 -10 -16z"/>
<path d="M1916 2143 c-20 -25 -36 -50 -36 -54 0 -5 36 -38 80 -75 44 -36 80
-68 80 -70 0 -2 -77 -98 -171 -214 -94 -116 -169 -215 -167 -220 3 -11 110
-100 118 -100 3 1 79 93 170 206 91 113 170 209 176 214 7 6 40 -15 95 -60
l84 -69 23 27 c12 15 31 39 42 54 l20 27 -234 190 c-129 105 -237 191 -239
191 -2 0 -21 -21 -41 -47z"/>
<path d="M3094 2162 c-12 -8 -36 -73 -30 -79 2 -3 7 5 11 16 3 12 10 19 15 16
5 -3 14 3 19 14 19 35 11 51 -15 33z"/>
<path d="M6418 1932 c-40 -24 -38 -48 2 -27 17 9 30 22 30 30 0 8 -1 15 -2 14
-2 0 -15 -8 -30 -17z"/>
<path d="M7170 1861 c-54 -17 -135 -65 -180 -107 -84 -79 -129 -199 -115 -310
14 -117 110 -246 222 -300 50 -24 70 -28 148 -29 78 0 97 4 145 27 30 15 76
46 102 68 48 42 148 182 148 208 0 22 -193 262 -207 257 -16 -5 -222 -168
-222 -176 -1 -9 71 -99 79 -99 4 0 28 17 55 37 l47 38 34 -40 c19 -22 34 -43
34 -47 0 -17 -94 -98 -126 -108 -97 -32 -201 11 -261 109 -57 95 -53 178 15
253 45 50 103 77 183 86 l59 7 -45 68 c-47 70 -58 75 -115 58z"/>
<path d="M2300 1465 c-112 -153 -199 -280 -194 -284 17 -16 313 -231 318 -231
7 0 76 97 76 107 0 5 -40 39 -90 74 -49 35 -90 68 -90 73 0 12 70 106 80 106
6 0 98 -63 147 -102 14 -11 101 99 87 111 -5 4 -42 31 -82 60 l-72 53 34 46
c19 26 38 48 43 49 4 2 51 -28 103 -66 l95 -69 37 51 c21 29 37 57 37 62 0 11
-293 228 -314 233 -7 2 -103 -121 -215 -273z"/>
<path d="M3727 1489 c-12 -10 -18 -18 -13 -19 5 0 3 -7 -4 -15 -19 -23 -7 -18
26 10 16 14 32 25 37 25 4 0 7 4 7 8 0 15 -31 9 -53 -9z"/>
<path d="M3795 1500 c3 -5 8 -10 11 -10 2 0 4 5 4 10 0 6 -5 10 -11 10 -5 0
-7 -4 -4 -10z"/>
<path d="M3821 1493 c0 -13 2 -14 6 -4 4 9 12 0 23 -24 17 -38 18 -38 30 -15
8 14 8 20 1 16 -6 -4 -11 0 -11 8 0 8 -9 20 -19 26 -27 14 -31 13 -30 -7z"/>
<path d="M6477 1410 c-142 -36 -247 -157 -262 -304 -16 -153 70 -313 207 -386
51 -27 77 -34 139 -38 93 -5 153 12 224 66 96 73 148 207 128 328 -23 136
-105 249 -217 304 -68 33 -158 45 -219 30z m167 -187 c58 -41 106 -136 106
-210 0 -93 -41 -148 -132 -173 -74 -22 -176 44 -218 142 -28 65 -25 163 6 205
54 75 160 91 238 36z"/>
<path d="M2960 1361 c-101 -33 -181 -104 -231 -207 -32 -64 -34 -75 -34 -169
0 -87 3 -107 26 -156 34 -72 86 -122 176 -166 58 -29 88 -37 147 -41 l73 -4
42 75 c22 41 41 77 41 80 0 3 -16 1 -37 -5 -97 -27 -244 37 -290 127 -49 94
20 266 124 311 98 42 229 -17 279 -127 9 -22 20 -36 24 -32 4 4 24 38 44 75
l38 68 -52 54 c-28 29 -79 68 -113 87 -54 29 -73 33 -147 36 -47 1 -96 -1
-110 -6z"/>
<path d="M3426 853 c-43 -181 -79 -332 -80 -337 -1 -10 143 -50 152 -42 2 3
19 65 37 138 18 73 38 134 44 136 12 4 226 -45 247 -57 8 -4 1 -49 -23 -145
-18 -77 -32 -140 -31 -142 8 -7 158 -41 158 -35 0 3 36 154 80 336 44 181 76
332 72 336 -4 3 -34 12 -67 19 -33 7 -65 15 -72 17 -7 3 -21 -37 -39 -114 -15
-65 -30 -121 -33 -125 -3 -4 -63 7 -133 24 -90 21 -128 34 -128 44 0 8 11 62
25 120 14 58 25 109 25 113 0 6 -131 42 -151 41 -3 0 -40 -147 -83 -327z"/>
<path d="M5732 1121 c-34 -10 -66 -21 -69 -25 -7 -6 165 -645 177 -659 6 -7
407 97 418 108 7 7 -32 135 -41 135 -6 0 -59 -13 -117 -29 -58 -17 -114 -31
-124 -33 -17 -3 -27 26 -90 256 -39 143 -75 260 -81 262 -5 1 -38 -6 -73 -15z"/>
<path d="M5201 1050 c-102 -22 -191 -94 -242 -197 -21 -42 -24 -62 -24 -158 0
-100 3 -116 29 -172 34 -74 113 -154 183 -185 37 -17 67 -22 130 -21 72 0 91
4 148 32 261 129 256 542 -8 670 -69 34 -147 45 -216 31z m126 -161 c67 -25
113 -100 121 -196 9 -116 -49 -204 -142 -218 -119 -18 -209 79 -209 227 0 54
5 75 27 113 42 71 128 103 203 74z"/>
<path d="M4206 1040 c-4 -14 -47 -703 -43 -706 1 -1 34 -4 73 -7 l72 -6 6 102
c4 56 9 142 13 192 l6 90 213 -220 c117 -121 214 -218 217 -215 5 5 49 712 44
716 -1 1 -34 4 -73 7 l-72 5 -6 -121 c-4 -67 -9 -153 -13 -192 l-6 -69 -213
219 c-145 150 -214 215 -218 205z"/>
</g>
</svg>
